{"glyphs":{"0":{"ha":635,"x_min":0,"x_max":0,"o":"m 415 157 l 256 157 l 256 0 l 444 0 b 593 143 511 0 593 75 l 593 883 b 444 1028 593 951 511 1028 l 256 1028 l 256 871 l 415 871 z m 190 1028 b 42 883 124 1028 42 951 l 42 143 b 190 0 42 75 124 0 l 219 0 l 219 1028 z "},"1":{"ha":639,"x_min":0,"x_max":0,"o":"m 294 1028 l 175 922 l 175 810 l 294 810 l 294 0 l 472 0 l 472 1028 z "},"2":{"ha":639,"x_min":0,"x_max":0,"o":"m 382 871 l 382 1028 l 204 1028 b 56 883 136 1028 56 953 l 56 731 l 221 731 l 221 871 z m 43 350 l 43 193 l 221 193 l 221 267 l 594 624 l 594 883 b 446 1028 594 951 513 1028 l 417 1028 l 417 693 z m 43 0 l 594 0 l 594 157 l 43 157 z "},"3":{"ha":646,"x_min":0,"x_max":0,"o":"m 219 157 l 219 303 l 42 303 l 42 144 b 193 0 42 74 125 0 l 383 0 l 383 157 z m 449 0 b 597 143 514 0 597 76 l 597 401 b 492 518 597 464 563 503 l 492 526 b 576 640 549 539 576 576 l 576 901 b 440 1028 576 963 499 1028 l 418 1028 l 418 0 z m 181 1028 b 42 903 122 1028 42 965 l 42 740 l 219 740 l 219 871 l 383 871 l 383 1028 z m 258 593 l 258 438 l 383 438 l 383 593 z "},"4":{"ha":653,"x_min":0,"x_max":0,"o":"m 139 356 l 336 718 l 336 992 l 0 386 l 0 215 l 336 215 l 336 356 z m 372 1028 l 372 0 l 550 0 l 550 215 l 644 215 l 644 356 l 550 356 l 550 1028 z "},"5":{"ha":649,"x_min":0,"x_max":0,"o":"m 451 0 b 600 143 517 0 600 76 l 600 489 b 465 622 600 549 525 622 l 422 622 l 422 0 z m 238 622 l 238 835 l 60 835 l 60 467 l 386 467 l 386 622 z m 521 1028 l 60 1028 l 60 871 l 521 871 z m 226 157 l 226 317 l 49 317 l 49 143 b 196 0 49 74 128 0 l 386 0 l 386 157 z "},"6":{"ha":649,"x_min":0,"x_max":0,"o":"m 422 157 l 263 157 l 263 0 l 451 0 b 600 143 518 0 600 75 l 600 467 b 469 592 600 526 526 592 l 263 592 l 263 435 l 422 435 z m 422 871 l 422 728 l 589 728 l 589 883 b 439 1028 589 951 506 1028 l 263 1028 l 263 871 z m 197 1028 b 49 883 131 1028 49 951 l 49 143 b 197 0 49 75 131 0 l 226 0 l 226 1028 z "},"7":{"ha":639,"x_min":0,"x_max":0,"o":"m 103 0 l 296 0 l 578 835 l 415 835 z m 63 1028 l 63 776 l 217 776 l 217 871 l 583 871 l 583 1028 z "},"8":{"ha":639,"x_min":0,"x_max":0,"o":"m 417 157 l 257 157 l 257 0 l 446 0 b 594 143 513 0 594 75 l 594 401 b 490 518 594 464 560 503 l 490 526 b 575 640 547 539 575 576 l 575 901 b 439 1028 575 963 497 1028 l 257 1028 l 257 871 l 417 871 l 417 593 l 257 593 l 257 438 l 417 438 z m 221 1028 l 199 1028 b 63 901 140 1028 63 964 l 63 640 b 147 526 63 576 90 539 l 147 518 b 43 401 78 503 43 464 l 43 143 b 192 0 43 75 125 0 l 221 0 z "},"9":{"ha":649,"x_min":0,"x_max":0,"o":"m 226 871 l 388 871 l 388 1028 l 197 1028 b 49 883 131 1028 49 951 l 49 560 b 92 475 49 529 63 501 b 181 436 121 449 150 436 l 388 436 l 388 592 l 226 592 z m 226 157 l 226 300 l 61 300 l 61 143 b 210 0 61 74 142 0 l 388 0 l 388 157 z m 451 0 b 600 143 518 0 600 75 l 600 883 b 451 1028 600 951 518 1028 l 422 1028 l 422 0 z "},"#":{"ha":1096,"x_min":0,"x_max":0,"o":"m 392 0 l 424 247 l 567 247 l 590 425 l 447 425 l 471 603 l 614 603 l 638 781 l 494 781 l 526 1026 l 350 1026 l 214 0 z m 140 781 l 117 603 l 258 603 l 282 781 z m 93 425 l 69 247 l 211 247 l 235 425 z m 747 0 l 781 247 l 957 247 l 981 425 l 803 425 l 826 603 l 1004 603 l 1026 781 l 850 781 l 883 1026 l 706 1026 l 571 0 z "},"$":{"ha":653,"x_min":0,"x_max":0,"o":"m 210 1028 b 61 883 142 1028 61 953 l 61 585 b 108 489 61 550 76 518 b 206 440 140 460 172 443 l 226 439 l 226 1028 z m 263 1118 l 263 871 l 425 871 l 425 726 l 592 726 l 592 883 b 443 1028 592 950 508 1028 l 390 1028 l 390 1118 z m 390 -90 l 390 0 l 454 0 b 604 143 521 0 604 75 l 604 449 b 556 543 604 482 588 514 b 458 593 524 574 492 590 l 263 607 l 263 436 l 425 424 l 425 157 l 263 157 l 263 -90 z m 49 300 l 49 143 b 197 0 49 75 131 0 l 226 0 l 226 300 z "},"%":{"ha":865,"x_min":0,"x_max":0,"o":"m 713 401 l 713 93 l 607 93 l 607 0 l 733 0 b 824 88 774 0 824 47 l 824 403 b 732 494 824 443 772 494 l 607 494 l 607 401 z m 572 494 l 553 494 b 461 403 507 494 461 446 l 461 88 b 553 0 461 44 508 0 l 572 0 z m 293 625 l 188 625 l 188 533 l 313 533 b 404 621 356 533 404 578 l 404 936 b 313 1026 404 978 354 1026 l 188 1026 l 188 935 l 293 935 z m 132 1026 b 42 936 90 1026 42 978 l 42 621 b 132 533 42 578 89 533 l 151 533 l 151 1026 z m 767 1022 l 67 25 l 100 3 l 800 999 z "},"&":{"ha":814,"x_min":0,"x_max":0,"o":"m 365 451 l 656 0 l 828 0 l 476 563 b 563 671 522 574 563 610 l 563 901 b 426 1028 563 963 485 1028 l 256 1028 l 256 871 l 410 871 l 410 601 l 256 601 l 256 451 z m 397 157 l 256 157 l 256 0 l 457 0 l 533 125 l 453 254 z m 753 536 l 601 536 l 571 483 l 654 353 z m 161 511 b 42 400 82 499 42 463 l 42 143 b 190 0 42 75 124 0 l 219 0 l 219 1028 l 196 1028 b 60 901 138 1028 60 964 l 60 631 b 161 517 58 567 93 529 z "},"(":{"ha":404,"x_min":0,"x_max":0,"o":"m 293 1064 b 111 893 213 1064 111 976 l 111 135 b 293 -36 111 51 213 -36 l 349 -36 l 349 65 l 233 65 l 233 963 l 349 963 l 349 1064 z "},")":{"ha":404,"x_min":0,"x_max":0,"o":"m 56 963 l 169 963 l 169 65 l 56 65 l 56 -36 l 111 -36 b 293 135 192 -36 293 51 l 293 893 b 111 1064 293 976 192 1064 l 56 1064 z "},"*":{"ha":669,"x_min":0,"x_max":0,"o":"m 278 1099 l 278 957 l 154 1028 l 97 931 l 222 858 l 99 786 l 156 689 l 278 760 l 278 617 l 390 617 l 390 761 l 514 690 l 569 788 l 447 858 l 572 929 l 515 1028 l 390 954 l 390 1099 z "},"+":{"ha":833,"x_min":0,"x_max":0,"o":"m 63 576 l 63 447 l 351 447 l 351 158 l 481 158 l 481 447 l 771 447 l 771 576 l 481 576 l 481 867 l 351 867 l 351 576 z "},",":{"ha":264,"x_min":0,"x_max":0,"o":"m 208 147 l 56 147 l 56 -86 l 119 -86 l 208 0 z "},"-":{"ha":232,"x_min":0,"x_max":0,"o":"m 7 517 l 7 399 l 225 399 l 225 517 z "},".":{"ha":264,"x_min":0,"x_max":0,"o":"m 208 147 l 56 147 l 56 0 l 208 0 z "},"/":{"ha":517,"x_min":0,"x_max":0,"o":"m 374 1050 l 0 -22 l 142 -22 l 517 1050 z "},":":{"ha":264,"x_min":0,"x_max":0,"o":"m 208 147 l 56 147 l 56 0 l 208 0 z m 208 451 l 56 451 l 56 304 l 208 304 z "},";":{"ha":264,"x_min":0,"x_max":0,"o":"m 208 451 l 56 451 l 56 304 l 208 304 z m 208 147 l 56 147 l 56 -86 l 119 -86 l 208 0 z "},"<":{"ha":842,"x_min":0,"x_max":0,"o":"m 779 776 l 779 892 l 63 575 l 63 458 l 779 142 l 779 257 l 182 517 z "},"=":{"ha":833,"x_min":0,"x_max":0,"o":"m 63 433 l 63 304 l 771 304 l 771 433 z m 63 724 l 63 594 l 771 594 l 771 724 z "},">":{"ha":842,"x_min":0,"x_max":0,"o":"m 63 257 l 63 142 l 779 458 l 779 575 l 63 892 l 63 776 l 661 517 z "},"?":{"ha":601,"x_min":0,"x_max":0,"o":"m 560 883 b 508 982 560 918 543 951 b 406 1028 474 1013 440 1028 l 382 1028 l 382 660 l 211 507 l 225 297 l 376 297 l 390 465 l 560 619 z m 196 1028 b 92 982 161 1028 126 1013 b 42 883 58 951 42 918 l 42 678 l 219 678 l 219 871 l 346 871 l 346 1028 z m 376 147 l 224 147 l 224 0 l 376 0 z "},"@":{"ha":1078,"x_min":0,"x_max":0,"o":"m 611 825 l 611 203 l 717 203 l 717 825 z m 469 294 l 469 732 l 576 732 l 576 825 l 454 825 b 361 733 410 825 361 778 l 361 290 b 453 203 361 247 410 203 l 576 203 l 576 294 z m 819 203 b 1015 397 910 203 1015 307 l 1015 471 l 950 471 l 950 407 b 811 269 950 342 876 269 l 753 269 l 753 203 z m 1015 831 b 819 1028 1015 921 911 1028 l 557 1028 l 557 961 l 808 961 b 950 819 874 961 950 885 l 950 506 l 1015 506 z m 260 1028 b 63 831 168 1028 63 924 l 63 506 l 129 506 l 129 814 b 276 961 129 882 208 961 l 521 961 l 521 1028 z m 63 197 b 260 0 63 103 165 0 l 521 0 l 521 67 l 276 67 b 129 214 207 67 129 144 l 129 471 l 63 471 z m 919 0 l 919 67 l 557 67 l 557 0 z "},"A":{"ha":633,"x_min":0,"x_max":0,"o":"m 311 1026 l 447 0 l 633 0 l 465 1026 z m 364 356 l 233 356 l 299 847 l 275 1026 l 169 1026 l 0 0 l 186 0 l 213 199 l 385 199 z "},"B":{"ha":631,"x_min":0,"x_max":0,"o":"m 410 157 l 263 157 l 263 0 l 440 0 b 589 143 506 0 589 76 l 589 401 b 483 517 589 465 554 504 l 483 526 b 589 642 554 539 589 578 l 589 888 b 440 1026 589 951 503 1026 l 263 1026 l 263 871 l 410 871 l 410 593 l 263 593 l 263 436 l 410 436 z m 49 1026 l 49 0 l 226 0 l 226 1026 z "},"C":{"ha":653,"x_min":0,"x_max":0,"o":"m 604 883 b 456 1026 604 950 521 1026 l 263 1026 l 263 871 l 425 871 l 425 663 l 604 663 z m 197 1026 b 49 883 131 1026 49 951 l 49 143 b 197 0 49 75 131 0 l 226 0 l 226 1026 z m 456 0 b 604 143 521 -4 604 79 l 604 413 l 425 413 l 425 157 l 263 157 l 263 0 z "},"D":{"ha":639,"x_min":0,"x_max":0,"o":"m 411 157 l 263 157 l 263 0 l 442 0 b 590 143 507 0 590 76 l 590 883 b 442 1026 590 950 507 1026 l 263 1026 l 263 871 l 411 871 z m 49 1026 l 49 0 l 226 0 l 226 1026 z "},"E":{"ha":521,"x_min":0,"x_max":0,"o":"m 263 1026 l 263 871 l 492 871 l 492 1026 z m 49 1026 l 49 0 l 226 0 l 226 1026 z m 492 0 l 492 157 l 263 157 l 263 0 z m 454 465 l 454 622 l 263 622 l 263 465 z "},"F":{"ha":521,"x_min":0,"x_max":0,"o":"m 263 1026 l 263 871 l 492 871 l 492 1026 z m 49 1026 l 49 0 l 226 0 l 226 1026 z m 451 463 l 451 619 l 263 619 l 263 463 z "},"G":{"ha":653,"x_min":0,"x_max":0,"o":"m 604 883 b 456 1026 610 950 517 1026 l 263 1026 l 263 871 l 425 871 l 425 669 l 604 669 z m 197 1026 b 49 883 131 1031 49 949 l 49 143 b 197 0 49 75 131 0 l 226 0 l 226 1026 z m 456 0 b 604 143 521 -4 604 79 l 604 514 l 347 514 l 347 357 l 425 357 l 425 157 l 263 157 l 263 0 z "},"H":{"ha":653,"x_min":0,"x_max":0,"o":"m 425 1026 l 425 593 l 263 593 l 263 436 l 425 436 l 425 0 l 604 0 l 604 1026 z m 49 1026 l 49 0 l 226 0 l 226 1026 z "},"I":{"ha":275,"x_min":0,"x_max":0,"o":"m 49 1026 l 49 0 l 226 0 l 226 1026 z "},"J":{"ha":576,"x_min":0,"x_max":0,"o":"m 349 1026 l 349 0 l 378 0 b 528 143 444 0 528 75 l 528 1026 z m 193 157 l 193 381 l 21 381 l 21 143 b 169 0 21 75 103 0 l 314 0 l 314 157 z "},"K":{"ha":635,"x_min":0,"x_max":0,"o":"m 49 1026 l 49 0 l 226 0 l 226 1026 z m 468 0 l 649 0 l 417 546 l 610 1026 l 438 1026 l 263 568 l 263 458 z "},"L":{"ha":492,"x_min":0,"x_max":0,"o":"m 49 1026 l 49 0 l 226 0 l 226 1026 z m 478 0 l 478 157 l 263 157 l 263 0 z "},"M":{"ha":815,"x_min":0,"x_max":0,"o":"m 56 1026 l 226 596 l 386 199 l 433 199 l 553 494 l 553 932 l 410 604 l 226 1026 z m 49 0 l 226 0 l 226 500 l 49 947 z m 588 1026 l 588 0 l 767 0 l 767 1026 z "},"N":{"ha":649,"x_min":0,"x_max":0,"o":"m 49 1026 l 436 0 l 600 0 l 213 1026 z m 49 925 l 49 0 l 226 0 l 226 454 z m 600 101 l 600 1026 l 422 1026 l 422 572 z "},"O":{"ha":653,"x_min":0,"x_max":0,"o":"m 425 157 l 263 157 l 263 0 l 456 0 b 604 143 521 0 604 76 l 604 883 b 456 1026 604 950 521 1026 l 263 1026 l 263 871 l 425 871 z m 197 1026 b 49 883 131 1026 49 951 l 49 143 b 197 0 49 75 131 0 l 226 0 l 226 1026 z "},"P":{"ha":624,"x_min":0,"x_max":0,"o":"m 411 515 l 263 515 l 263 358 l 440 358 b 589 501 506 358 589 435 l 589 883 b 440 1026 589 950 506 1026 l 263 1026 l 263 871 l 411 871 z m 49 1026 l 49 0 l 226 0 l 226 1026 z "},"Q":{"ha":663,"x_min":0,"x_max":0,"o":"m 418 157 l 256 157 l 256 0 l 449 0 b 532 32 476 0 504 11 l 565 0 l 676 111 l 597 192 l 597 883 b 449 1026 597 950 514 1026 l 256 1026 l 256 871 l 418 871 z m 190 1026 b 42 883 124 1026 42 951 l 42 143 b 190 0 42 75 124 0 l 219 0 l 219 1026 z "},"R":{"ha":624,"x_min":0,"x_max":0,"o":"m 263 593 l 263 436 l 411 436 l 411 0 l 589 0 l 589 397 b 496 508 589 453 558 490 l 496 517 b 589 629 558 532 589 569 l 589 883 b 440 1026 589 951 507 1026 l 263 1026 l 263 871 l 411 871 l 411 593 z m 228 1026 l 49 1026 l 49 0 l 228 0 z "},"S":{"ha":653,"x_min":0,"x_max":0,"o":"m 210 1026 b 61 883 142 1026 61 953 l 61 585 b 206 440 61 517 140 446 l 226 439 l 226 1026 z m 425 422 l 425 157 l 263 157 l 263 0 l 454 0 b 604 143 521 0 604 75 l 604 449 b 458 592 604 515 521 586 l 263 606 l 263 436 z m 49 299 l 49 143 b 197 0 49 75 131 0 l 226 0 l 226 299 z m 425 871 l 425 726 l 592 726 l 592 883 b 443 1026 592 950 508 1026 l 263 1026 l 263 871 z "},"T":{"ha":513,"x_min":0,"x_max":0,"o":"m 14 1026 l 14 871 l 499 871 l 499 1026 z m 167 0 l 346 0 l 346 835 l 167 835 z "},"U":{"ha":653,"x_min":0,"x_max":0,"o":"m 425 1026 l 425 157 l 263 157 l 263 0 l 456 0 b 604 143 521 0 604 76 l 604 1026 z m 49 1026 l 49 143 b 197 0 49 75 131 0 l 226 0 l 226 1026 z "},"V":{"ha":633,"x_min":0,"x_max":0,"o":"m 322 0 l 186 1026 l 0 1026 l 169 0 z m 335 181 l 358 0 l 465 0 l 633 1026 l 447 1026 z "},"W":{"ha":799,"x_min":0,"x_max":0,"o":"m 301 0 l 186 1026 l 0 1026 l 169 0 z m 799 1026 l 613 1026 l 536 379 l 421 828 l 378 828 l 288 475 l 328 110 l 400 397 l 497 0 l 629 0 z "},"X":{"ha":607,"x_min":0,"x_max":0,"o":"m 414 0 l 607 0 l 189 1026 l 0 1026 z m 285 224 l 188 460 l 0 0 l 194 0 z m 418 557 l 607 1026 l 419 1026 l 324 792 z "},"Y":{"ha":569,"x_min":0,"x_max":0,"o":"m -14 1026 l 196 429 l 196 0 l 374 0 l 374 329 l 185 1026 z m 583 1026 l 385 1026 l 304 721 l 379 444 z "},"Z":{"ha":639,"x_min":0,"x_max":0,"o":"m 161 0 l 610 871 l 610 1026 l 478 1026 l 29 157 l 29 0 z m 92 1026 l 92 871 l 357 871 l 438 1026 z m 558 0 l 558 157 l 282 157 l 201 0 z "},"[":{"ha":453,"x_min":0,"x_max":0,"o":"m 111 1064 l 111 -35 l 418 -35 l 418 65 l 233 65 l 233 963 l 418 963 l 418 1064 z "},"\\":{"ha":517,"x_min":0,"x_max":0,"o":"m 0 1050 l 375 -22 l 517 -22 l 143 1050 z "},"]":{"ha":453,"x_min":0,"x_max":0,"o":"m 35 963 l 218 963 l 218 65 l 35 65 l 35 -35 l 342 -35 l 342 1064 l 35 1064 z "},"^":{"ha":829,"x_min":0,"x_max":0,"o":"m 599 511 l 732 511 l 490 1028 l 339 1028 l 97 511 l 231 511 l 414 922 z "},"_":{"ha":721,"x_min":0,"x_max":0,"o":"m 721 -124 l 0 -124 l 0 -185 l 721 -185 z "},"`":{"ha":483,"x_min":0,"x_max":0,"o":"m 29 963 l 140 808 l 276 808 l 207 963 z "},"a":{"ha":465,"x_min":0,"x_max":0,"o":"m 279 0 l 431 0 l 431 611 b 304 733 431 668 360 733 l 279 733 z m 249 331 l 249 464 l 163 464 b 35 342 106 464 35 400 l 35 122 b 163 0 35 61 104 0 l 249 0 l 249 135 l 188 135 l 188 331 z m 249 600 l 249 733 l 163 733 b 35 611 106 733 35 669 l 35 532 l 188 532 l 188 600 z "},"b":{"ha":474,"x_min":0,"x_max":0,"o":"m 286 135 l 225 135 l 225 0 l 311 0 b 439 122 368 0 439 65 l 439 611 b 311 733 439 667 367 733 l 225 733 l 225 600 l 286 600 z m 42 1028 l 42 0 l 194 0 l 194 1028 z "},"c":{"ha":467,"x_min":0,"x_max":0,"o":"m 163 733 b 35 611 106 733 35 669 l 35 122 b 163 0 35 61 104 0 l 188 0 l 188 733 z m 279 474 l 432 474 l 432 611 b 304 733 432 667 360 733 l 218 733 l 218 600 l 279 600 z m 279 135 l 218 135 l 218 0 l 304 0 b 432 122 361 0 432 65 l 432 294 l 279 294 z "},"d":{"ha":474,"x_min":0,"x_max":0,"o":"m 249 600 l 249 733 l 163 733 b 35 611 106 733 35 669 l 35 122 b 163 0 35 61 104 0 l 249 0 l 249 135 l 188 135 l 188 600 z m 279 0 l 432 0 l 432 1028 l 279 1028 z "},"e":{"ha":467,"x_min":0,"x_max":0,"o":"m 218 135 l 218 0 l 304 0 b 431 122 361 0 431 64 l 431 201 l 279 201 l 279 135 z m 218 404 l 218 269 l 432 269 l 431 611 b 304 733 431 668 360 733 l 218 733 l 218 600 l 279 600 l 279 404 z m 163 733 b 35 611 106 733 35 669 l 35 122 b 163 0 35 61 104 0 l 188 0 l 188 733 z "},"f":{"ha":319,"x_min":0,"x_max":0,"o":"m 85 600 l 85 0 l 238 0 l 238 600 l 299 600 l 299 733 l 238 733 l 238 893 l 299 893 l 299 1028 l 213 1028 b 85 904 154 1028 85 964 l 85 733 l 21 733 l 21 600 z "},"g":{"ha":474,"x_min":0,"x_max":0,"o":"m 188 600 l 249 600 l 249 733 l 163 733 b 35 611 106 733 35 669 l 35 122 b 163 0 35 61 104 0 l 249 0 l 249 135 l 188 135 z m 188 -90 l 35 -90 l 35 -169 b 163 -292 35 -228 106 -292 l 249 -292 l 249 -158 l 188 -158 z m 304 -292 b 432 -169 360 -292 432 -225 l 432 733 l 279 733 l 279 -292 z "},"h":{"ha":474,"x_min":0,"x_max":0,"o":"m 286 0 l 439 0 l 439 611 b 311 733 439 667 367 733 l 225 733 l 225 600 l 286 600 z m 42 1028 l 42 0 l 194 0 l 194 1028 z "},"i":{"ha":236,"x_min":0,"x_max":0,"o":"m 194 960 l 42 960 l 42 813 l 194 813 z m 42 733 l 42 0 l 194 0 l 194 733 z "},"j":{"ha":240,"x_min":0,"x_max":0,"o":"m 46 733 l 46 -158 l -14 -158 l -14 -292 l 71 -292 b 157 -251 100 -292 129 -278 b 199 -169 185 -225 199 -199 l 199 733 z m 199 960 l 46 960 l 46 813 l 199 813 z "},"k":{"ha":500,"x_min":0,"x_max":0,"o":"m 346 0 l 500 0 l 339 390 l 463 733 l 319 733 l 225 464 l 225 300 z m 42 1028 l 42 0 l 194 0 l 194 1028 z "},"l":{"ha":236,"x_min":0,"x_max":0,"o":"m 42 1028 l 42 0 l 194 0 l 194 1028 z "},"m":{"ha":710,"x_min":0,"x_max":0,"o":"m 279 0 l 432 0 l 432 733 l 218 733 l 218 600 l 279 600 z m 35 733 l 35 0 l 188 0 l 188 733 z m 522 0 l 675 0 l 675 611 b 547 733 675 668 603 733 l 463 733 l 463 600 l 522 600 z "},"n":{"ha":467,"x_min":0,"x_max":0,"o":"m 279 0 l 432 0 l 432 611 b 304 733 432 667 360 733 l 218 733 l 218 600 l 279 600 z m 35 733 l 35 0 l 188 0 l 188 733 z "},"o":{"ha":467,"x_min":0,"x_max":0,"o":"m 163 733 b 35 611 106 733 35 669 l 35 122 b 163 0 35 61 104 0 l 188 0 l 188 733 z m 279 135 l 218 135 l 218 0 l 304 0 b 432 122 361 0 432 65 l 432 611 b 304 733 432 667 360 733 l 218 733 l 218 600 l 279 600 z "},"p":{"ha":474,"x_min":0,"x_max":0,"o":"m 225 135 l 225 0 l 311 0 b 439 122 368 0 439 65 l 439 611 b 311 733 439 667 367 733 l 225 733 l 225 600 l 286 600 l 286 135 z m 194 733 l 42 733 l 42 -292 l 194 -292 z "},"q":{"ha":474,"x_min":0,"x_max":0,"o":"m 188 600 l 249 600 l 249 733 l 163 733 b 35 611 106 733 35 669 l 35 122 b 163 0 35 61 104 0 l 249 0 l 249 135 l 188 135 z m 432 -292 l 432 733 l 279 733 l 279 -292 z "},"r":{"ha":438,"x_min":0,"x_max":0,"o":"m 279 532 l 431 532 l 431 611 b 304 733 431 668 360 733 l 218 733 l 218 600 l 279 600 z m 35 0 l 188 0 l 188 733 l 35 733 z "},"s":{"ha":465,"x_min":0,"x_max":0,"o":"m 279 532 l 431 532 l 431 611 b 304 733 431 668 360 733 l 218 733 l 218 600 l 279 600 z m 163 733 b 35 611 106 733 35 669 l 35 439 b 163 317 35 382 106 317 l 188 314 l 188 733 z m 279 135 l 218 135 l 218 0 l 304 0 b 431 122 361 0 431 64 l 431 318 b 304 442 431 375 360 440 l 218 446 l 218 311 l 279 307 z m 188 201 l 35 201 l 35 122 b 163 0 35 61 104 0 l 188 0 z "},"t":{"ha":319,"x_min":0,"x_max":0,"o":"m 21 600 l 85 600 l 85 122 b 213 0 85 61 154 0 l 299 0 l 299 135 l 238 135 l 238 600 l 299 600 l 299 733 l 238 733 l 238 944 l 85 944 l 85 733 l 21 733 z "},"u":{"ha":467,"x_min":0,"x_max":0,"o":"m 188 733 l 35 733 l 35 122 b 163 0 35 61 104 0 l 249 0 l 249 135 l 188 135 z m 432 0 l 432 733 l 279 733 l 279 0 z "},"v":{"ha":458,"x_min":0,"x_max":0,"o":"m 246 0 l 157 733 l 0 733 l 122 0 z m 246 246 l 274 0 l 336 0 l 458 733 l 301 733 z "},"w":{"ha":613,"x_min":0,"x_max":0,"o":"m 236 0 l 154 733 l 0 733 l 121 0 z m 613 733 l 458 733 l 404 271 l 322 592 l 290 592 l 229 351 l 258 90 l 306 283 l 376 0 l 493 0 z "},"x":{"ha":458,"x_min":0,"x_max":0,"o":"m 0 733 l 306 0 l 458 0 l 153 733 z m 138 329 l 0 0 l 153 0 l 214 146 z m 244 588 l 321 404 l 458 733 l 306 733 z "},"y":{"ha":471,"x_min":0,"x_max":0,"o":"m 188 733 l 35 733 l 35 122 b 163 0 35 61 104 0 l 249 0 l 249 135 l 188 135 z m 304 -292 b 432 -169 360 -292 432 -225 l 432 733 l 279 733 l 279 -292 z m 188 -90 l 35 -90 l 35 -169 b 163 -292 35 -228 106 -292 l 249 -292 l 249 -158 l 188 -158 z "},"z":{"ha":439,"x_min":0,"x_max":0,"o":"m 51 600 l 218 600 l 283 733 l 51 733 z m 386 0 l 386 135 l 222 135 l 157 0 z m 21 0 l 125 0 l 418 600 l 418 733 l 314 733 l 21 133 z "},"{":{"ha":429,"x_min":0,"x_max":0,"o":"m 157 515 b 219 538 175 519 196 528 b 256 613 243 549 256 574 l 256 963 l 374 963 l 374 1064 l 315 1064 b 133 893 235 1064 133 976 l 133 619 b 67 547 133 585 96 547 l 14 547 l 14 481 l 67 481 b 133 408 96 481 133 442 l 133 135 b 315 -35 133 51 235 -35 l 374 -35 l 374 65 l 256 65 l 256 415 b 219 489 256 454 243 479 b 157 513 196 499 175 507 z "},"|":{"ha":236,"x_min":0,"x_max":0,"o":"m 188 0 l 188 1028 l 49 1028 l 49 0 z "},"}":{"ha":429,"x_min":0,"x_max":0,"o":"m 272 513 b 208 489 254 507 232 499 b 174 415 185 479 174 454 l 174 65 l 56 65 l 56 -35 l 114 -35 b 296 135 194 -35 296 51 l 296 408 b 364 481 296 442 331 481 l 415 481 l 415 547 l 364 547 b 296 619 331 547 296 585 l 296 893 b 114 1064 296 976 194 1064 l 56 1064 l 56 963 l 174 963 l 174 613 b 208 538 174 574 185 549 b 272 515 232 528 254 519 z "},"~":{"ha":732,"x_min":0,"x_max":0,"o":"m 42 461 l 161 392 l 231 513 l 468 375 b 599 408 507 353 572 364 l 690 567 l 571 636 l 501 515 l 286 640 b 119 594 232 674 149 649 z "},"‚":{"ha":264,"x_min":0,"x_max":0,"o":"m 208 147 l 56 147 l 56 -86 l 119 -86 l 208 0 z "},"„":{"ha":461,"x_min":0,"x_max":0,"o":"m 406 147 l 253 147 l 253 -86 l 317 -86 l 406 0 z m 208 147 l 56 147 l 56 -86 l 119 -86 l 208 0 z "},"…":{"ha":708,"x_min":0,"x_max":0,"o":"m 208 147 l 56 147 l 56 0 l 208 0 z m 431 147 l 278 147 l 278 0 l 431 0 z m 653 147 l 500 147 l 500 0 l 653 0 z "},"†":{"ha":635,"x_min":0,"x_max":0,"o":"m 256 1028 l 256 763 l 42 763 l 42 646 l 256 646 l 256 0 l 379 0 l 379 646 l 593 646 l 593 763 l 379 763 l 379 1028 z "},"‡":{"ha":635,"x_min":0,"x_max":0,"o":"m 256 1028 l 256 831 l 42 831 l 42 714 l 256 714 l 256 472 l 42 472 l 42 356 l 256 356 l 256 0 l 379 0 l 379 356 l 593 356 l 593 472 l 379 472 l 379 714 l 593 714 l 593 831 l 379 831 l 379 1028 z "},"‰":{"ha":1368,"x_min":0,"x_max":0,"o":"m 1313 403 b 1221 494 1313 443 1261 494 l 1096 494 l 1096 401 l 1201 401 l 1201 93 l 1096 93 l 1096 0 l 1221 0 b 1313 89 1264 0 1313 44 z m 1040 494 b 950 403 999 494 950 444 l 950 89 b 1040 0 950 44 997 0 l 1061 0 l 1061 494 z m 726 401 l 726 93 l 621 93 l 621 0 l 746 0 b 838 89 789 0 838 44 l 838 403 b 746 494 838 443 786 494 l 621 494 l 621 401 z m 586 494 l 567 494 b 475 403 525 494 475 446 l 475 89 b 567 0 475 44 522 0 l 586 0 z m 307 625 l 201 625 l 201 533 l 326 533 b 418 621 369 533 418 578 l 418 936 b 326 1028 418 976 367 1028 l 201 1028 l 201 935 l 307 935 z m 146 1028 b 56 936 104 1028 56 978 l 56 621 b 146 533 56 578 103 533 l 165 533 l 165 1028 z m 781 1022 l 81 26 l 114 3 l 814 1000 z "},"‹":{"ha":332,"x_min":0,"x_max":0,"o":"m 83 636 l 83 417 l 206 225 l 249 249 l 175 524 l 249 801 l 206 826 z "},"‘":{"ha":264,"x_min":0,"x_max":0,"o":"m 56 794 l 208 794 l 208 1028 l 144 1028 l 56 942 z "},"’":{"ha":264,"x_min":0,"x_max":0,"o":"m 208 1028 l 56 1028 l 56 794 l 119 794 l 208 881 z "},"“":{"ha":461,"x_min":0,"x_max":0,"o":"m 56 794 l 208 794 l 208 1028 l 144 1028 l 56 942 z m 253 794 l 406 794 l 406 1028 l 342 1028 l 253 942 z "},"”":{"ha":461,"x_min":0,"x_max":0,"o":"m 406 1028 l 253 1028 l 253 794 l 317 794 l 406 881 z m 208 1028 l 56 1028 l 56 794 l 119 794 l 208 881 z "},"•":{"ha":583,"x_min":0,"x_max":0,"o":"m 174 696 l 174 485 l 410 485 l 410 696 z "},"–":{"ha":435,"x_min":0,"x_max":0,"o":"m 42 517 l 42 399 l 393 399 l 393 517 z "},"—":{"ha":607,"x_min":0,"x_max":0,"o":"m 42 517 l 42 399 l 565 399 l 565 517 z "},"™":{"ha":947,"x_min":0,"x_max":0,"o":"m 350 1028 l 14 1028 l 14 913 l 350 913 z m 118 404 l 247 404 l 247 888 l 118 888 z m 768 1028 l 768 404 l 899 404 l 899 1028 z m 432 1028 l 639 518 l 669 518 l 743 700 l 743 968 l 654 767 l 539 1028 z m 561 639 l 432 958 l 432 404 l 561 404 z "},"›":{"ha":346,"x_min":0,"x_max":0,"o":"m 83 801 l 171 524 l 83 249 l 126 225 l 263 417 l 263 636 l 126 826 z "},"¤":{"ha":776,"x_min":0,"x_max":0,"o":"m 42 258 l 126 171 l 188 232 b 369 169 244 192 304 171 l 369 307 b 239 367 318 311 275 331 b 178 499 203 404 182 447 l 42 499 b 101 319 43 433 64 374 z m 178 535 b 239 664 182 585 203 628 b 369 725 275 700 318 721 l 369 864 b 189 800 301 860 240 838 l 126 861 l 42 775 l 103 714 b 42 535 65 660 44 600 z m 406 169 b 588 233 471 171 532 193 l 650 171 l 735 258 l 674 318 b 735 499 710 374 731 433 l 597 499 b 535 367 593 447 572 404 b 406 307 499 331 456 311 z m 735 535 b 672 715 731 600 710 660 l 735 775 l 650 861 l 586 800 b 406 864 533 838 474 860 l 406 725 b 535 664 456 721 499 700 b 597 535 572 628 593 585 z "},"¦":{"ha":278,"x_min":0,"x_max":0,"o":"m 208 0 l 208 383 l 69 383 l 69 0 z m 208 643 l 208 1028 l 69 1028 l 69 643 z "},"§":{"ha":675,"x_min":0,"x_max":0,"o":"m 274 418 l 274 299 l 401 292 l 401 411 z m 239 1028 l 218 1028 b 69 886 151 1028 69 954 l 69 735 b 131 669 69 689 103 676 l 131 660 b 69 593 103 650 69 639 l 69 442 b 118 347 69 407 86 376 b 218 301 150 318 183 303 l 239 300 l 239 419 z m 239 126 l 239 186 l 69 186 l 69 140 b 218 0 69 71 151 0 l 401 0 l 401 126 z m 457 0 b 606 140 522 0 606 74 l 606 292 b 546 358 606 340 572 351 l 546 367 b 606 435 572 372 606 385 l 606 585 b 556 678 606 618 589 649 b 457 725 524 707 490 724 l 438 726 l 438 0 z m 274 735 l 274 615 l 401 608 l 401 728 z m 274 901 l 438 901 l 438 842 l 606 842 l 606 883 b 458 1028 606 950 524 1028 l 274 1028 z "},"©":{"ha":1078,"x_min":0,"x_max":0,"o":"m 717 736 b 686 796 717 757 707 778 b 625 825 667 815 646 825 l 504 825 l 504 732 l 610 732 l 610 613 l 717 613 z m 453 825 b 390 796 432 825 411 815 b 361 736 371 778 361 757 l 361 290 b 453 203 361 247 410 203 l 469 203 l 469 825 z m 625 203 b 717 290 668 203 717 247 l 717 443 l 610 443 l 610 294 l 504 294 l 504 203 z m 557 67 l 557 0 l 819 0 b 1015 197 913 0 1015 106 l 1015 496 l 950 496 l 950 224 b 788 67 950 136 872 67 z m 1015 831 b 819 1028 1015 921 911 1028 l 557 1028 l 557 961 l 788 961 b 950 804 871 961 950 890 l 950 532 l 1015 532 z m 290 67 b 129 224 204 67 129 136 l 129 496 l 63 496 l 63 197 b 260 0 63 103 165 0 l 522 0 l 522 67 z m 129 804 b 290 961 129 890 206 961 l 522 961 l 522 1028 l 260 1028 b 63 831 168 1028 63 924 l 63 532 l 129 532 z "},"«":{"ha":550,"x_min":0,"x_max":0,"o":"m 315 636 l 315 417 l 438 225 l 479 249 l 406 524 l 481 801 l 438 826 z m 69 636 l 69 417 l 192 225 l 235 249 l 161 524 l 235 801 l 192 826 z "},"¬":{"ha":858,"x_min":0,"x_max":0,"o":"m 796 313 l 796 724 l 63 724 l 63 594 l 667 594 l 667 313 z "},"­":{"ha":246,"x_min":0,"x_max":0,"o":"m 14 576 l 14 478 l 232 478 l 232 576 z "},"®":{"ha":1078,"x_min":0,"x_max":0,"o":"m 610 540 l 504 540 l 504 447 l 610 447 l 610 203 l 717 203 l 717 413 b 685 474 717 446 706 467 b 632 493 664 482 646 489 b 685 513 646 497 664 504 b 717 575 706 521 717 542 l 717 736 b 686 796 717 757 707 778 b 625 825 667 815 646 825 l 504 825 l 504 732 l 610 732 z m 361 203 l 469 203 l 469 825 l 361 825 z m 557 67 l 557 0 l 819 0 b 1015 197 913 0 1015 106 l 1015 496 l 950 496 l 950 224 b 788 67 950 136 872 67 z m 290 67 b 129 224 204 67 129 136 l 129 496 l 63 496 l 63 197 b 260 0 63 103 165 0 l 522 0 l 522 67 z m 129 804 b 290 961 129 890 206 961 l 522 961 l 522 1028 l 260 1028 b 63 831 168 1028 63 924 l 63 532 l 129 532 z m 1015 831 b 819 1028 1015 921 911 1028 l 557 1028 l 557 961 l 788 961 b 950 804 871 961 950 890 l 950 532 l 1015 532 z "},"°":{"ha":474,"x_min":0,"x_max":0,"o":"m 311 808 l 199 808 l 199 742 l 308 742 b 376 810 340 742 376 776 l 376 960 b 308 1028 376 992 340 1028 l 199 1028 l 199 961 l 311 961 z m 163 1028 b 97 960 131 1026 97 989 l 97 810 b 163 742 97 776 131 742 z "},"±":{"ha":833,"x_min":0,"x_max":0,"o":"m 771 0 l 771 129 l 63 129 l 63 0 z m 63 738 l 63 608 l 353 608 l 353 319 l 481 319 l 481 608 l 771 608 l 771 738 l 481 738 l 481 1028 l 353 1028 l 353 738 z "},"¶":{"ha":701,"x_min":0,"x_max":0,"o":"m 376 0 l 376 1028 l 169 1028 b 21 886 103 1028 21 954 l 21 690 b 169 550 21 621 103 550 l 269 550 l 269 0 z m 511 938 l 511 0 l 618 0 l 618 1028 l 413 1028 l 413 938 z "},"·":{"ha":264,"x_min":0,"x_max":0,"o":"m 208 592 l 56 592 l 56 444 l 208 444 z "},"»":{"ha":549,"x_min":0,"x_max":0,"o":"m 315 801 l 389 524 l 315 249 l 357 225 l 479 417 l 479 636 l 357 826 z m 69 801 l 143 524 l 69 249 l 113 225 l 235 417 l 235 636 l 113 826 z "},"'":{"ha":286,"x_min":0,"x_max":0,"o":"m 217 1026 l 69 1026 l 89 782 l 197 782 z "},"!":{"ha":289,"x_min":0,"x_max":0,"o":"m 56 1026 l 69 297 l 219 297 l 233 1026 z m 221 147 l 68 147 l 68 0 l 221 0 z "},"А":{"ha":633,"x_min":0,"x_max":0,"o":"m 311 1026 l 447 0 l 633 0 l 465 1026 z m 364 356 l 233 356 l 299 847 l 275 1026 l 169 1026 l 0 0 l 186 0 l 213 199 l 385 199 z "},"Б":{"ha":639,"x_min":0,"x_max":0,"o":"m 425 436 l 425 157 l 263 157 l 263 0 l 456 0 b 604 143 521 0 604 76 l 604 450 b 456 593 604 517 521 593 l 263 593 l 263 436 z m 263 1026 l 263 871 l 549 871 l 549 1026 z m 49 1026 l 49 0 l 226 0 l 226 1026 z "},"В":{"ha":631,"x_min":0,"x_max":0,"o":"m 410 157 l 263 157 l 263 0 l 440 0 b 589 143 506 0 589 76 l 589 401 b 483 517 589 465 554 504 l 483 526 b 589 642 554 539 589 578 l 589 888 b 440 1026 589 951 503 1026 l 263 1026 l 263 871 l 410 871 l 410 593 l 263 593 l 263 436 l 410 436 z m 49 1026 l 49 0 l 226 0 l 226 1026 z "},"Г":{"ha":492,"x_min":0,"x_max":0,"o":"m 478 871 l 478 1026 l 263 1026 l 263 871 z m 49 1026 l 49 0 l 226 0 l 226 1026 z "},"Д":{"ha":710,"x_min":0,"x_max":0,"o":"m 264 1026 b 115 883 181 1026 115 963 l 88 193 l 265 193 l 293 871 l 410 871 l 410 1026 z m 624 1026 l 444 1026 l 444 193 l 624 193 z m 14 -128 l 176 -128 l 176 0 l 533 0 l 533 -128 l 696 -128 l 696 157 l 14 157 z "},"Е":{"ha":521,"x_min":0,"x_max":0,"o":"m 263 1026 l 263 871 l 492 871 l 492 1026 z m 49 1026 l 49 0 l 226 0 l 226 1026 z m 492 0 l 492 157 l 263 157 l 263 0 z m 454 465 l 454 622 l 263 622 l 263 465 z "},"Ж":{"ha":993,"x_min":0,"x_max":0,"o":"m 826 0 l 1007 0 l 775 546 l 969 1026 l 796 1026 l 621 568 l 621 458 z m 407 0 l 586 0 l 586 1026 l 407 1026 z m 372 568 l 197 1026 l 24 1026 l 218 546 l -14 0 l 167 0 l 372 458 z "},"З":{"ha":625,"x_min":0,"x_max":0,"o":"m 232 436 l 376 436 l 376 593 l 232 593 z m 213 157 l 213 299 l 35 299 l 35 143 b 183 0 35 75 117 0 l 376 0 l 376 157 z m 442 0 b 590 143 507 0 590 76 l 590 403 b 486 518 590 465 556 504 l 486 525 b 569 628 542 540 569 574 l 569 901 b 433 1026 569 961 492 1026 l 411 1026 l 411 0 z m 190 1026 b 54 901 132 1026 54 963 l 54 740 l 213 740 l 213 871 l 376 871 l 376 1026 z "},"И":{"ha":649,"x_min":0,"x_max":0,"o":"m 49 0 l 226 0 l 226 1026 l 49 1026 z m 388 464 l 388 879 l 263 564 l 263 149 z m 600 0 l 600 1026 l 422 1026 l 422 0 z "},"Й":{"ha":649,"x_min":0,"x_max":0,"o":"m 286 1185 l 286 1243 l 151 1243 l 151 1193 b 179 1132 151 1172 161 1153 b 239 1103 197 1113 218 1103 l 404 1103 b 465 1132 425 1103 446 1113 b 496 1193 486 1151 496 1172 l 496 1243 l 360 1243 l 360 1185 z m 49 0 l 226 0 l 226 1026 l 49 1026 z m 388 464 l 388 879 l 263 564 l 263 149 z m 600 0 l 600 1026 l 422 1026 l 422 0 z "},"К":{"ha":635,"x_min":0,"x_max":0,"o":"m 49 1026 l 49 0 l 226 0 l 226 1026 z m 468 0 l 649 0 l 417 546 l 610 1026 l 438 1026 l 263 568 l 263 458 z "},"Л":{"ha":664,"x_min":0,"x_max":0,"o":"m 615 1028 l 438 1028 l 438 0 l 615 0 z m 14 157 l 14 0 l 107 0 b 256 143 174 0 253 75 l 283 871 l 403 871 l 403 1028 l 254 1028 b 106 883 186 1028 108 953 l 78 157 z "},"М":{"ha":815,"x_min":0,"x_max":0,"o":"m 56 1026 l 226 596 l 386 199 l 433 199 l 553 494 l 553 932 l 410 604 l 226 1026 z m 49 0 l 226 0 l 226 500 l 49 947 z m 588 1026 l 588 0 l 767 0 l 767 1026 z "},"Н":{"ha":653,"x_min":0,"x_max":0,"o":"m 425 1026 l 425 593 l 263 593 l 263 436 l 425 436 l 425 0 l 604 0 l 604 1026 z m 49 1026 l 49 0 l 226 0 l 226 1026 z "},"О":{"ha":653,"x_min":0,"x_max":0,"o":"m 425 157 l 263 157 l 263 0 l 456 0 b 604 143 521 0 604 76 l 604 883 b 456 1026 604 950 521 1026 l 263 1026 l 263 871 l 425 871 z m 197 1026 b 49 883 131 1026 49 951 l 49 143 b 197 0 49 75 131 0 l 226 0 l 226 1026 z "},"П":{"ha":653,"x_min":0,"x_max":0,"o":"m 604 0 l 604 1026 l 425 1026 l 425 0 z m 49 1026 l 49 0 l 226 0 l 226 871 l 390 871 l 390 1026 z "},"Р":{"ha":624,"x_min":0,"x_max":0,"o":"m 411 515 l 263 515 l 263 358 l 440 358 b 589 501 506 358 589 435 l 589 883 b 440 1026 589 950 506 1026 l 263 1026 l 263 871 l 411 871 z m 49 1026 l 49 0 l 226 0 l 226 1026 z "},"С":{"ha":653,"x_min":0,"x_max":0,"o":"m 604 883 b 456 1026 604 950 521 1026 l 263 1026 l 263 871 l 425 871 l 425 663 l 604 663 z m 197 1026 b 49 883 131 1026 49 951 l 49 143 b 197 0 49 75 131 0 l 226 0 l 226 1026 z m 456 0 b 604 143 521 -4 604 79 l 604 413 l 425 413 l 425 157 l 263 157 l 263 0 z "},"Т":{"ha":513,"x_min":0,"x_max":0,"o":"m 14 1026 l 14 871 l 499 871 l 499 1026 z m 167 0 l 346 0 l 346 835 l 167 835 z "},"У":{"ha":569,"x_min":0,"x_max":0,"o":"m 81 157 l 81 0 l 226 0 b 378 146 296 0 363 83 l 576 1026 l 386 1026 l 217 157 z m 183 1026 l -7 1026 l 193 215 l 269 603 z "},"Ф":{"ha":838,"x_min":0,"x_max":0,"o":"m 617 274 l 543 274 l 543 118 l 663 118 b 796 242 721 118 796 181 l 796 821 b 663 946 796 881 719 946 l 543 946 l 543 790 l 617 790 z m 294 790 l 294 946 l 175 946 b 42 821 115 946 42 882 l 42 242 b 175 118 42 179 115 118 l 294 118 l 294 274 l 219 274 l 219 790 z m 507 0 l 507 1026 l 329 1026 l 329 0 z "},"Х":{"ha":607,"x_min":0,"x_max":0,"o":"m 414 0 l 607 0 l 189 1026 l 0 1026 z m 285 224 l 188 460 l 0 0 l 194 0 z m 418 557 l 607 1026 l 419 1026 l 324 792 z "},"Ц":{"ha":710,"x_min":0,"x_max":0,"o":"m 604 1026 l 425 1026 l 425 192 l 604 192 z m 49 0 l 526 0 l 526 -128 l 689 -128 l 689 157 l 49 157 z m 49 192 l 226 192 l 226 1026 l 49 1026 z "},"Ч":{"ha":639,"x_min":0,"x_max":0,"o":"m 213 561 l 213 1026 l 35 1026 l 35 547 b 183 404 35 479 117 404 l 376 404 l 376 561 z m 590 0 l 590 1026 l 411 1026 l 411 0 z "},"Ш":{"ha":915,"x_min":0,"x_max":0,"o":"m 226 1026 l 49 1026 l 49 192 l 226 192 z m 49 0 l 867 0 l 867 157 l 49 157 z m 867 1026 l 689 1026 l 689 192 l 867 192 z m 547 1026 l 368 1026 l 368 192 l 547 192 z "},"Щ":{"ha":967,"x_min":0,"x_max":0,"o":"m 547 1026 l 368 1026 l 368 192 l 547 192 z m 867 1026 l 689 1026 l 689 192 l 867 192 z m 49 0 l 790 0 l 790 -128 l 953 -128 l 953 157 l 49 157 z m 226 1026 l 49 1026 l 49 192 l 226 192 z "},"Ъ":{"ha":726,"x_min":0,"x_max":0,"o":"m 514 465 l 514 157 l 367 157 l 367 0 l 543 0 b 692 143 610 0 692 75 l 692 479 b 543 622 692 547 610 622 l 367 622 l 367 465 z m 21 1026 l 21 871 l 153 871 l 153 0 l 331 0 l 331 1026 z "},"Ы":{"ha":872,"x_min":0,"x_max":0,"o":"m 646 1026 l 646 0 l 824 0 l 824 1026 z m 410 465 l 410 157 l 263 157 l 263 0 l 442 0 b 590 143 507 0 590 76 l 590 479 b 442 622 590 546 507 622 l 263 622 l 263 465 z m 49 1026 l 49 0 l 226 0 l 226 1026 z "},"Ь":{"ha":625,"x_min":0,"x_max":0,"o":"m 49 1026 l 49 0 l 226 0 l 226 1026 z m 410 465 l 410 157 l 263 157 l 263 0 l 442 0 b 590 143 507 0 590 76 l 590 479 b 442 622 590 546 507 622 l 263 622 l 263 465 z "},"Э":{"ha":646,"x_min":0,"x_max":0,"o":"m 239 593 l 239 436 l 383 436 l 383 593 z m 219 157 l 219 299 l 42 299 l 42 143 b 190 0 42 75 124 0 l 383 0 l 383 157 z m 449 0 b 597 143 514 0 597 76 l 597 883 b 449 1026 597 950 514 1026 l 418 1026 l 418 0 z m 190 1026 b 42 883 124 1026 42 951 l 42 726 l 219 726 l 219 871 l 383 871 l 383 1026 z "},"Ю":{"ha":1004,"x_min":0,"x_max":0,"o":"m 226 592 l 226 1026 l 49 1026 l 49 0 l 226 0 l 226 435 l 367 435 l 367 592 z m 778 157 l 615 157 l 615 0 l 807 0 b 956 143 874 0 956 75 l 956 883 b 807 1026 956 951 874 1026 l 615 1026 l 615 869 l 778 869 z m 550 1026 b 401 883 482 1026 401 953 l 401 143 b 550 0 401 74 482 0 l 579 0 l 579 1026 z "},"Я":{"ha":631,"x_min":0,"x_max":0,"o":"m 219 593 l 219 871 l 368 871 l 368 1026 l 190 1026 b 42 883 124 1026 42 951 l 42 629 b 135 517 42 569 72 532 l 135 508 b 42 397 72 490 42 453 l 42 0 l 219 0 l 219 436 l 368 436 l 368 593 z m 403 0 l 582 0 l 582 1026 l 403 1026 z "},"а":{"ha":465,"x_min":0,"x_max":0,"o":"m 279 0 l 431 0 l 431 611 b 304 733 431 668 360 733 l 279 733 z m 249 331 l 249 464 l 163 464 b 35 342 106 464 35 400 l 35 122 b 163 0 35 61 104 0 l 249 0 l 249 135 l 188 135 l 188 331 z m 249 600 l 249 733 l 163 733 b 35 611 106 733 35 669 l 35 532 l 188 532 l 188 600 z "},"б":{"ha":474,"x_min":0,"x_max":0,"o":"m 396 1028 l 225 996 l 225 861 l 396 893 z m 286 135 l 225 135 l 225 0 l 311 0 b 439 122 368 0 439 65 l 439 611 b 311 733 439 667 367 733 l 225 733 l 225 600 l 286 600 z m 169 983 b 42 838 113 968 42 899 l 42 122 b 169 0 42 61 111 0 l 194 0 l 194 989 z "},"в":{"ha":460,"x_min":0,"x_max":0,"o":"m 35 733 l 35 0 l 188 0 l 188 733 z m 279 133 l 218 133 l 218 0 l 304 0 b 432 122 361 0 432 64 l 432 288 b 357 369 432 332 407 360 l 357 376 b 417 457 397 383 417 411 l 417 611 b 289 733 417 669 346 733 l 218 733 l 218 600 l 279 600 l 279 435 l 218 435 l 218 300 l 279 300 z "},"г":{"ha":415,"x_min":0,"x_max":0,"o":"m 404 733 l 218 733 l 218 600 l 404 600 z m 35 0 l 188 0 l 188 733 l 35 733 z "},"д":{"ha":474,"x_min":0,"x_max":0,"o":"m 188 600 l 249 600 l 249 733 l 163 733 b 35 611 106 733 35 669 l 35 122 b 163 0 35 61 104 0 l 249 0 l 249 135 l 188 135 z m 188 -90 l 35 -90 l 35 -169 b 163 -292 35 -228 106 -292 l 249 -292 l 249 -158 l 188 -158 z m 304 -292 b 432 -169 360 -292 432 -225 l 432 733 l 279 733 l 279 -292 z "},"е":{"ha":467,"x_min":0,"x_max":0,"o":"m 218 135 l 218 0 l 304 0 b 431 122 361 0 431 64 l 431 201 l 279 201 l 279 135 z m 218 404 l 218 269 l 432 269 l 431 611 b 304 733 431 668 360 733 l 218 733 l 218 600 l 279 600 l 279 404 z m 163 733 b 35 611 106 733 35 669 l 35 122 b 163 0 35 61 104 0 l 188 0 l 188 733 z "},"ж":{"ha":764,"x_min":0,"x_max":0,"o":"m 306 0 l 458 0 l 458 733 l 306 733 z m 275 464 l 181 733 l 38 733 l 161 390 l 0 0 l 154 0 l 275 300 z m 610 0 l 764 0 l 603 390 l 726 733 l 583 733 l 489 464 l 489 300 z "},"з":{"ha":453,"x_min":0,"x_max":0,"o":"m 242 600 l 242 733 l 156 733 b 28 611 99 733 28 669 l 28 532 l 181 532 l 181 600 z m 181 214 l 28 214 l 28 122 b 156 0 28 61 97 0 l 242 0 l 242 135 l 181 135 z m 272 0 l 297 0 b 425 122 354 0 425 64 l 425 288 b 350 369 425 332 400 360 l 350 376 b 410 457 390 383 410 411 l 410 611 b 282 733 410 669 339 733 l 272 733 l 272 435 l 181 435 l 181 300 l 272 300 z "},"и":{"ha":467,"x_min":0,"x_max":0,"o":"m 188 733 l 35 733 l 35 122 b 163 0 35 61 104 0 l 249 0 l 249 135 l 188 135 z m 432 0 l 432 733 l 279 733 l 279 0 z "},"й":{"ha":467,"x_min":0,"x_max":0,"o":"m 188 733 l 35 733 l 35 122 b 163 0 35 61 104 0 l 249 0 l 249 135 l 188 135 z m 432 0 l 432 733 l 279 733 l 279 0 z m 204 890 l 204 949 l 69 949 l 69 899 b 97 838 69 878 79 858 b 157 808 115 818 136 808 l 322 808 b 383 838 343 808 364 818 b 414 899 404 857 414 878 l 414 949 l 278 949 l 278 890 z "},"к":{"ha":486,"x_min":0,"x_max":0,"o":"m 339 0 l 493 0 l 332 390 l 456 733 l 313 733 l 218 464 l 218 300 z m 35 733 l 35 0 l 188 0 l 188 733 z "},"л":{"ha":500,"x_min":0,"x_max":0,"o":"m 21 135 l 21 0 l 94 0 b 221 122 151 0 219 64 l 235 600 l 282 600 l 282 733 l 210 733 b 83 611 153 733 85 669 l 69 135 z m 313 0 l 465 0 l 465 733 l 313 733 z "},"м":{"ha":618,"x_min":0,"x_max":0,"o":"m 432 733 l 432 0 l 583 0 l 583 733 z m 35 733 l 278 133 l 314 133 l 401 349 l 401 664 l 296 428 l 161 733 z m 188 276 l 35 653 l 35 0 l 188 0 z "},"н":{"ha":467,"x_min":0,"x_max":0,"o":"m 279 0 l 432 0 l 432 733 l 279 733 l 279 435 l 218 435 l 218 300 l 279 300 z m 35 733 l 35 0 l 188 0 l 188 733 z "},"о":{"ha":467,"x_min":0,"x_max":0,"o":"m 163 733 b 35 611 106 733 35 669 l 35 122 b 163 0 35 61 104 0 l 188 0 l 188 733 z m 279 135 l 218 135 l 218 0 l 304 0 b 432 122 361 0 432 65 l 432 611 b 304 733 432 667 360 733 l 218 733 l 218 600 l 279 600 z "},"п":{"ha":467,"x_min":0,"x_max":0,"o":"m 249 600 l 249 733 l 35 733 l 35 0 l 188 0 l 188 600 z m 279 0 l 432 0 l 432 733 l 279 733 z "},"р":{"ha":474,"x_min":0,"x_max":0,"o":"m 225 135 l 225 0 l 311 0 b 439 122 368 0 439 65 l 439 611 b 311 733 439 667 367 733 l 225 733 l 225 600 l 286 600 l 286 135 z m 194 733 l 42 733 l 42 -292 l 194 -292 z "},"с":{"ha":467,"x_min":0,"x_max":0,"o":"m 163 733 b 35 611 106 733 35 669 l 35 122 b 163 0 35 61 104 0 l 188 0 l 188 733 z m 279 474 l 432 474 l 432 611 b 304 733 432 667 360 733 l 218 733 l 218 600 l 279 600 z m 279 135 l 218 135 l 218 0 l 304 0 b 432 122 361 0 432 65 l 432 294 l 279 294 z "},"т":{"ha":411,"x_min":0,"x_max":0,"o":"m 404 733 l 7 733 l 7 600 l 404 600 z m 129 0 l 282 0 l 282 568 l 129 568 z "},"у":{"ha":471,"x_min":0,"x_max":0,"o":"m 188 733 l 35 733 l 35 122 b 163 0 35 61 104 0 l 249 0 l 249 135 l 188 135 z m 304 -292 b 432 -169 360 -292 432 -225 l 432 733 l 279 733 l 279 -292 z m 188 -90 l 35 -90 l 35 -169 b 163 -292 35 -228 106 -292 l 249 -292 l 249 -158 l 188 -158 z "},"ф":{"ha":696,"x_min":0,"x_max":0,"o":"m 456 135 l 456 0 l 540 0 b 668 122 597 0 668 64 l 668 611 b 540 733 668 668 596 733 l 456 733 l 456 600 l 515 600 l 515 135 z m 425 807 l 272 807 l 272 -90 l 425 -90 z m 181 600 l 242 600 l 242 733 l 156 733 b 28 611 99 733 28 669 l 28 122 b 156 0 28 61 97 0 l 242 0 l 242 135 l 181 135 z "},"х":{"ha":458,"x_min":0,"x_max":0,"o":"m 0 733 l 306 0 l 458 0 l 153 733 z m 138 329 l 0 0 l 153 0 l 214 146 z m 244 588 l 321 404 l 458 733 l 306 733 z "},"ц":{"ha":507,"x_min":0,"x_max":0,"o":"m 188 164 l 188 733 l 35 733 l 35 164 z m 356 0 l 356 -90 l 493 -90 l 493 133 l 35 133 l 35 0 z m 432 164 l 432 733 l 279 733 l 279 164 z "},"ч":{"ha":460,"x_min":0,"x_max":0,"o":"m 181 733 l 28 733 l 28 422 b 156 300 28 361 97 300 l 242 300 l 242 435 l 181 435 z m 425 0 l 425 733 l 272 733 l 272 0 z "},"ш":{"ha":710,"x_min":0,"x_max":0,"o":"m 432 164 l 432 733 l 279 733 l 279 164 z m 675 0 l 675 133 l 35 133 l 35 0 z m 675 164 l 675 733 l 522 733 l 522 164 z m 188 164 l 188 733 l 35 733 l 35 164 z "},"щ":{"ha":751,"x_min":0,"x_max":0,"o":"m 432 164 l 432 733 l 279 733 l 279 164 z m 599 0 l 599 -90 l 738 -90 l 738 133 l 35 133 l 35 0 z m 675 164 l 675 733 l 522 733 l 522 164 z m 188 164 l 188 733 l 35 733 l 35 164 z "},"ъ":{"ha":499,"x_min":0,"x_max":0,"o":"m 318 135 l 258 135 l 258 0 l 343 0 b 471 122 400 0 471 64 l 471 342 b 343 464 471 399 399 464 l 258 464 l 258 331 l 318 331 z m 14 733 l 14 600 l 75 600 l 75 0 l 228 0 l 228 733 z "},"ы":{"ha":664,"x_min":0,"x_max":0,"o":"m 35 733 l 35 0 l 188 0 l 188 733 z m 279 135 l 218 135 l 218 0 l 304 0 b 431 122 361 0 431 64 l 431 342 b 304 464 431 399 360 464 l 218 464 l 218 331 l 279 331 z m 476 733 l 476 0 l 629 0 l 629 733 z "},"ь":{"ha":458,"x_min":0,"x_max":0,"o":"m 35 733 l 35 0 l 188 0 l 188 733 z m 279 135 l 218 135 l 218 0 l 304 0 b 431 122 361 0 431 64 l 431 342 b 304 464 431 399 360 464 l 218 464 l 218 331 l 279 331 z "},"э":{"ha":467,"x_min":0,"x_max":0,"o":"m 249 600 l 249 733 l 163 733 b 35 611 106 733 35 669 l 35 532 l 188 532 l 188 600 z m 188 214 l 35 214 l 35 122 b 163 0 35 61 104 0 l 249 0 l 249 135 l 188 135 z m 279 0 l 304 0 b 432 122 361 0 432 64 l 432 367 l 432 611 b 303 733 432 669 360 733 l 279 733 l 279 435 l 188 435 l 188 300 l 279 300 z "},"ю":{"ha":710,"x_min":0,"x_max":0,"o":"m 249 300 l 249 435 l 188 435 l 188 733 l 35 733 l 35 0 l 188 0 l 188 300 z m 406 733 b 279 611 349 733 279 669 l 279 122 b 406 0 279 63 347 0 l 432 0 l 432 733 z m 522 135 l 463 135 l 463 0 l 547 0 b 675 122 604 0 675 64 l 675 611 b 547 733 675 668 603 733 l 463 733 l 463 600 l 522 600 z "},"я":{"ha":467,"x_min":0,"x_max":0,"o":"m 279 0 l 432 0 l 432 733 l 279 733 z m 249 300 l 249 435 l 188 435 l 188 600 l 249 600 l 249 733 l 163 733 b 35 611 104 733 35 672 l 35 457 b 110 376 35 413 60 386 l 110 369 b 35 288 60 360 35 332 l 35 0 l 188 0 l 188 300 z "},"Љ":{"ha":1014,"x_min":0,"x_max":0,"o":"m 799 465 l 799 157 l 651 157 l 651 0 l 831 0 b 979 143 896 0 979 76 l 979 479 b 831 622 979 546 896 622 l 651 622 l 651 465 z m 615 1028 l 438 1028 l 438 0 l 615 0 z m 14 157 l 14 0 l 107 0 b 256 143 174 0 253 75 l 283 871 l 403 871 l 403 1028 l 254 1028 b 106 883 186 1028 108 953 l 78 157 z "},"Њ":{"ha":1001,"x_min":0,"x_max":0,"o":"m 788 465 l 788 157 l 639 157 l 639 0 l 818 0 b 967 143 883 0 967 76 l 967 479 b 818 622 967 546 883 622 l 639 622 l 639 465 z m 425 1028 l 425 593 l 263 593 l 263 438 l 425 438 l 425 0 l 604 0 l 604 1028 z m 49 1028 l 49 0 l 226 0 l 226 1028 z "},"љ":{"ha":744,"x_min":0,"x_max":0,"o":"m 28 135 l 28 0 l 101 0 b 228 122 158 0 226 64 l 242 600 l 289 600 l 289 733 l 217 733 b 90 611 160 733 92 669 l 76 135 z m 319 733 l 319 0 l 472 0 l 472 733 z m 564 135 l 503 135 l 503 0 l 589 0 b 717 122 646 0 717 65 l 717 342 b 589 464 717 397 644 464 l 503 464 l 503 331 l 564 331 z "},"њ":{"ha":710,"x_min":0,"x_max":0,"o":"m 286 0 l 439 0 l 439 733 l 286 733 l 286 435 l 225 435 l 225 300 l 286 300 z m 42 733 l 42 0 l 194 0 l 194 733 z m 529 135 l 469 135 l 469 0 l 554 0 b 682 122 611 0 682 64 l 682 342 b 554 464 682 399 610 464 l 469 464 l 469 331 l 529 331 z "},"Џ":{"ha":653,"x_min":0,"x_max":0,"o":"m 604 1028 l 425 1028 l 425 193 l 604 193 z m 244 -128 l 407 -128 l 407 0 l 604 0 l 604 157 l 49 157 l 49 0 l 244 0 z m 49 193 l 226 193 l 226 1028 l 49 1028 z "},"ћ":{"ha":522,"x_min":0,"x_max":0,"o":"m 35 600 l 99 600 l 99 0 l 251 0 l 251 600 l 313 600 l 313 733 l 251 733 l 251 1028 l 99 1028 l 99 733 l 35 733 z m 343 0 l 494 0 l 494 342 b 368 464 494 399 424 464 l 282 464 l 282 331 l 343 331 z "},"ђ":{"ha":522,"x_min":0,"x_max":0,"o":"m 35 600 l 99 600 l 99 0 l 251 0 l 251 600 l 313 600 l 313 733 l 251 733 l 251 1028 l 99 1028 l 99 733 l 35 733 z m 343 -90 l 368 -90 b 494 32 424 -90 494 -25 l 494 342 b 368 464 494 399 424 464 l 282 464 l 282 331 l 343 331 z "},"џ":{"ha":481,"x_min":0,"x_max":0,"o":"m 194 164 l 194 733 l 42 733 l 42 164 z m 439 0 l 439 133 l 42 133 l 42 0 l 171 0 l 171 -90 l 310 -90 l 310 0 z m 439 164 l 439 733 l 286 733 l 286 164 z "},"µ":{"ha":632,"x_min":0,"x_max":0,"o":"m 439 733 l 439 0 l 590 0 l 590 733 z m 42 733 l 285 133 l 321 133 l 408 349 l 408 664 l 303 428 l 168 733 z m 194 276 l 42 653 l 42 -174 l 194 -174 z "},"ґ":{"ha":446,"x_min":0,"x_max":0,"o":"m 432 825 l 293 825 l 293 733 l 218 733 l 218 600 l 432 600 z m 35 0 l 188 0 l 188 733 l 35 733 z "},"Ћ":{"ha":732,"x_min":0,"x_max":0,"o":"m 14 1028 l 14 871 l 499 871 l 499 1028 z m 167 0 l 346 0 l 346 835 l 167 835 z m 697 0 l 697 525 b 549 668 697 593 615 668 l 381 668 l 381 513 l 519 513 l 519 0 z "},"Ђ":{"ha":725,"x_min":0,"x_max":0,"o":"m 0 1026 l 0 871 l 485 871 l 485 1026 z m 153 0 l 332 0 l 332 835 l 153 835 z m 367 157 l 367 0 l 535 0 b 683 143 601 0 683 75 l 683 525 b 535 668 683 593 601 668 l 367 668 l 367 513 l 506 513 l 506 157 z "},"№":{"ha":1061,"x_min":0,"x_max":0,"o":"m 658 390 l 1019 390 l 1019 479 l 658 479 z m 910 625 l 804 625 l 804 533 l 929 533 b 1019 621 969 533 1019 581 l 1019 936 b 929 1028 1019 978 971 1028 l 804 1028 l 804 935 l 910 935 z m 749 1028 b 658 936 706 1028 658 979 l 658 621 b 749 533 658 578 706 533 l 768 533 l 768 1028 z m 49 1026 l 436 0 l 600 0 l 213 1026 z m 49 0 l 211 0 l 211 494 l 49 925 z m 438 1026 l 438 531 l 600 100 l 600 1026 z "},"є":{"ha":460,"x_min":0,"x_max":0,"o":"m 279 532 l 432 532 l 432 611 b 304 733 432 667 360 733 l 218 733 l 218 600 l 279 600 z m 218 135 l 218 0 l 304 0 b 432 122 361 0 432 65 l 432 214 l 279 214 l 279 135 z m 279 300 l 279 435 l 188 435 l 188 733 l 163 733 b 35 611 104 733 35 672 l 35 367 l 35 122 b 163 0 35 61 104 0 l 188 0 l 188 300 z "},"ё":{"ha":467,"x_min":0,"x_max":0,"o":"m 218 135 l 218 0 l 304 0 b 431 122 361 0 431 64 l 431 201 l 279 201 l 279 135 z m 218 404 l 218 269 l 432 269 l 431 611 b 304 733 431 668 360 733 l 218 733 l 218 600 l 279 600 l 279 404 z m 163 733 b 35 611 106 733 35 669 l 35 122 b 163 0 35 61 104 0 l 188 0 l 188 733 z m 49 963 l 49 808 l 213 808 l 213 963 z m 250 963 l 250 808 l 414 808 l 414 963 z "},"Є":{"ha":639,"x_min":0,"x_max":0,"o":"m 256 438 l 399 438 l 399 593 l 256 593 z m 256 0 l 449 0 b 597 143 514 0 597 76 l 597 300 l 418 300 l 418 157 l 256 157 z m 219 1028 l 190 1028 b 42 883 124 1028 42 951 l 42 143 b 190 0 42 75 124 0 l 219 0 z m 256 871 l 418 871 l 418 726 l 597 726 l 597 883 b 449 1028 597 950 514 1028 l 256 1028 z "},"і":{"ha":236,"x_min":0,"x_max":0,"o":"m 194 960 l 42 960 l 42 813 l 194 813 z m 42 733 l 42 0 l 194 0 l 194 733 z "},"Ё":{"ha":521,"x_min":0,"x_max":0,"o":"m 263 1026 l 263 871 l 492 871 l 492 1026 z m 49 1026 l 49 0 l 226 0 l 226 1026 z m 492 0 l 492 157 l 263 157 l 263 0 z m 454 465 l 454 622 l 263 622 l 263 465 z m 90 1257 l 90 1103 l 254 1103 l 254 1257 z m 292 1257 l 292 1103 l 456 1103 l 456 1257 z "},"Ї":{"ha":275,"x_min":0,"x_max":0,"o":"m 49 1026 l 49 0 l 226 0 l 226 1026 z m -44 1257 l -44 1103 l 119 1103 l 119 1257 z m 157 1257 l 157 1103 l 321 1103 l 321 1257 z "},"ї":{"ha":236,"x_min":0,"x_max":0,"o":"m 42 733 l 42 0 l 194 0 l 194 733 z m -64 963 l -64 808 l 100 808 l 100 963 z m 138 963 l 138 808 l 301 808 l 301 963 z "},"Ґ":{"ha":499,"x_min":0,"x_max":0,"o":"m 49 1028 l 49 0 l 226 0 l 226 1028 z m 478 871 l 478 1157 l 315 1157 l 315 1028 l 263 1028 l 263 871 z "},"´":{"ha":483,"x_min":0,"x_max":0,"o":"m 276 963 l 207 808 l 343 808 l 454 963 z "},"Á":{"ha":633,"x_min":0,"x_max":0,"o":"m 311 1026 l 447 0 l 633 0 l 465 1026 z m 364 356 l 233 356 l 299 847 l 275 1026 l 169 1026 l 0 0 l 186 0 l 213 199 l 385 199 z m 310 1257 l 240 1103 l 376 1103 l 488 1257 z "},"Í":{"ha":275,"x_min":0,"x_max":0,"o":"m 49 1026 l 49 0 l 226 0 l 226 1026 z m 118 1257 l 49 1103 l 185 1103 l 296 1257 z "},"Ì":{"ha":275,"x_min":0,"x_max":0,"o":"m 49 1026 l 49 0 l 226 0 l 226 1026 z m -21 1257 l 90 1103 l 226 1103 l 157 1257 z "},"À":{"ha":633,"x_min":0,"x_max":0,"o":"m 311 1026 l 447 0 l 633 0 l 465 1026 z m 364 356 l 233 356 l 299 847 l 275 1026 l 169 1026 l 0 0 l 186 0 l 213 199 l 385 199 z m 135 1257 l 246 1103 l 382 1103 l 313 1257 z "},"ˆ":{"ha":483,"x_min":0,"x_max":0,"o":"m 111 963 l 28 808 l 164 808 l 242 904 l 319 808 l 456 808 l 372 963 z "},"ˇ":{"ha":483,"x_min":0,"x_max":0,"o":"m 372 808 l 456 963 l 319 963 l 242 867 l 164 963 l 28 963 l 111 808 z "},"Â":{"ha":633,"x_min":0,"x_max":0,"o":"m 311 1026 l 447 0 l 633 0 l 465 1026 z m 364 356 l 233 356 l 299 847 l 275 1026 l 169 1026 l 0 0 l 186 0 l 213 199 l 385 199 z m 186 1257 l 103 1103 l 239 1103 l 317 1199 l 394 1103 l 531 1103 l 447 1257 z "},"ó":{"ha":467,"x_min":0,"x_max":0,"o":"m 163 733 b 35 611 106 733 35 669 l 35 122 b 163 0 35 61 104 0 l 188 0 l 188 733 z m 279 135 l 218 135 l 218 0 l 304 0 b 432 122 361 0 432 65 l 432 611 b 304 733 432 667 360 733 l 218 733 l 218 600 l 279 600 z m 221 963 l 151 808 l 288 808 l 399 963 z "},"ô":{"ha":467,"x_min":0,"x_max":0,"o":"m 163 733 b 35 611 106 733 35 669 l 35 122 b 163 0 35 61 104 0 l 188 0 l 188 733 z m 279 135 l 218 135 l 218 0 l 304 0 b 432 122 361 0 432 65 l 432 611 b 304 733 432 667 360 733 l 218 733 l 218 600 l 279 600 z m 103 963 l 19 808 l 156 808 l 233 904 l 311 808 l 447 808 l 364 963 z "},"ò":{"ha":467,"x_min":0,"x_max":0,"o":"m 163 733 b 35 611 106 733 35 669 l 35 122 b 163 0 35 61 104 0 l 188 0 l 188 733 z m 279 135 l 218 135 l 218 0 l 304 0 b 432 122 361 0 432 65 l 432 611 b 304 733 432 667 360 733 l 218 733 l 218 600 l 279 600 z m 68 963 l 179 808 l 315 808 l 246 963 z "},"Æ":{"ha":751,"x_min":0,"x_max":0,"o":"m 299 356 l 233 356 l 299 847 l 299 1026 l 169 1026 l 0 0 l 186 0 l 213 199 l 299 199 z m 549 1026 l 549 871 l 722 871 l 722 1026 z m 335 1026 l 335 0 l 513 0 l 513 1026 z m 722 0 l 722 157 l 549 157 l 549 0 z m 685 465 l 685 622 l 549 622 l 549 465 z "},"Ǽ":{"ha":751,"x_min":0,"x_max":0,"o":"m 299 356 l 233 356 l 299 847 l 299 1026 l 169 1026 l 0 0 l 186 0 l 213 199 l 299 199 z m 549 1026 l 549 871 l 722 871 l 722 1026 z m 335 1026 l 335 0 l 513 0 l 513 1026 z m 722 0 l 722 157 l 549 157 l 549 0 z m 685 465 l 685 622 l 549 622 l 549 465 z m 363 1257 l 293 1103 l 429 1103 l 540 1257 z "},"˘":{"ha":483,"x_min":0,"x_max":0,"o":"m 175 918 l 175 949 l 69 949 l 69 899 b 97 838 69 878 79 858 b 157 808 115 818 136 808 l 322 808 b 383 838 343 808 364 818 b 414 899 404 857 414 878 l 414 949 l 307 949 l 307 918 z "},"Ă":{"ha":633,"x_min":0,"x_max":0,"o":"m 311 1026 l 447 0 l 633 0 l 465 1026 z m 364 356 l 233 356 l 299 847 l 275 1026 l 169 1026 l 0 0 l 186 0 l 213 199 l 385 199 z m 250 1213 l 250 1243 l 144 1243 l 144 1193 b 172 1132 144 1172 154 1153 b 232 1103 190 1113 211 1103 l 397 1103 b 458 1132 418 1103 439 1113 b 489 1193 479 1151 489 1172 l 489 1243 l 382 1243 l 382 1213 z "},"¨":{"ha":483,"x_min":0,"x_max":0,"o":"m 61 963 l 61 808 l 225 808 l 225 963 z m 263 963 l 263 808 l 426 808 l 426 963 z "},"Ä":{"ha":633,"x_min":0,"x_max":0,"o":"m 311 1026 l 447 0 l 633 0 l 465 1026 z m 364 356 l 233 356 l 299 847 l 275 1026 l 169 1026 l 0 0 l 186 0 l 213 199 l 385 199 z m 133 1257 l 133 1103 l 297 1103 l 297 1257 z m 335 1257 l 335 1103 l 499 1103 l 499 1257 z "},"¯":{"ha":483,"x_min":0,"x_max":0,"o":"m 69 899 l 69 808 l 414 808 l 414 899 z "},"Ā":{"ha":633,"x_min":0,"x_max":0,"o":"m 311 1026 l 447 0 l 633 0 l 465 1026 z m 364 356 l 233 356 l 299 847 l 275 1026 l 169 1026 l 0 0 l 186 0 l 213 199 l 385 199 z m 144 1193 l 144 1103 l 489 1103 l 489 1193 z "},"˜":{"ha":483,"x_min":0,"x_max":0,"o":"m 51 857 l 135 806 l 178 878 l 289 814 b 371 833 313 801 353 806 l 432 942 l 350 992 l 307 919 l 207 976 b 103 947 172 997 124 982 z "},"Ã":{"ha":633,"x_min":0,"x_max":0,"o":"m 311 1026 l 447 0 l 633 0 l 465 1026 z m 364 356 l 233 356 l 299 847 l 275 1026 l 169 1026 l 0 0 l 186 0 l 213 199 l 385 199 z m 126 1151 l 210 1100 l 253 1172 l 364 1108 b 446 1128 388 1096 428 1100 l 507 1236 l 425 1286 l 382 1214 l 282 1271 b 178 1242 247 1292 199 1276 z "},"˚":{"ha":483,"x_min":0,"x_max":0,"o":"m 96 889 b 125 828 96 868 106 847 b 188 799 146 808 167 799 l 226 799 l 226 908 l 193 908 l 193 975 l 226 975 l 226 1086 l 188 1086 b 125 1056 167 1086 146 1076 b 96 994 106 1036 96 1015 z m 293 975 l 293 908 l 263 908 l 263 799 l 301 799 b 389 889 344 799 389 846 l 389 994 b 301 1086 389 1038 344 1086 l 263 1086 l 263 975 z "},"Å":{"ha":633,"x_min":0,"x_max":0,"o":"m 311 1026 l 447 0 l 633 0 l 465 1026 z m 364 356 l 233 356 l 299 847 l 275 1026 l 169 1026 l 0 0 l 186 0 l 213 199 l 385 199 z m 169 1183 b 199 1122 169 1163 179 1142 b 261 1093 219 1103 240 1093 l 300 1093 l 300 1203 l 267 1203 l 267 1269 l 300 1269 l 300 1381 l 261 1381 b 199 1350 240 1381 219 1371 b 169 1289 179 1331 169 1310 z m 367 1269 l 367 1203 l 336 1203 l 336 1093 l 375 1093 b 463 1183 418 1093 463 1140 l 463 1289 b 375 1381 463 1332 418 1381 l 336 1381 l 336 1269 z "},"É":{"ha":521,"x_min":0,"x_max":0,"o":"m 263 1026 l 263 871 l 492 871 l 492 1026 z m 49 1026 l 49 0 l 226 0 l 226 1026 z m 492 0 l 492 157 l 263 157 l 263 0 z m 454 465 l 454 622 l 263 622 l 263 465 z m 249 1257 l 179 1103 l 315 1103 l 426 1257 z "},"È":{"ha":521,"x_min":0,"x_max":0,"o":"m 263 1026 l 263 871 l 492 871 l 492 1026 z m 49 1026 l 49 0 l 226 0 l 226 1026 z m 492 0 l 492 157 l 263 157 l 263 0 z m 454 465 l 454 622 l 263 622 l 263 465 z m 94 1257 l 206 1103 l 342 1103 l 272 1257 z "},"Č":{"ha":653,"x_min":0,"x_max":0,"o":"m 604 883 b 456 1026 604 950 521 1026 l 263 1026 l 263 871 l 425 871 l 425 663 l 604 663 z m 197 1026 b 49 883 131 1026 49 951 l 49 143 b 197 0 49 75 131 0 l 226 0 l 226 1026 z m 456 0 b 604 143 521 -4 604 79 l 604 413 l 425 413 l 425 157 l 263 157 l 263 0 z m 457 1103 l 540 1257 l 404 1257 l 326 1161 l 249 1257 l 113 1257 l 196 1103 z "},"Ĉ":{"ha":653,"x_min":0,"x_max":0,"o":"m 604 883 b 456 1026 604 950 521 1026 l 263 1026 l 263 871 l 425 871 l 425 663 l 604 663 z m 197 1026 b 49 883 131 1026 49 951 l 49 143 b 197 0 49 75 131 0 l 226 0 l 226 1026 z m 456 0 b 604 143 521 -4 604 79 l 604 413 l 425 413 l 425 157 l 263 157 l 263 0 z m 196 1257 l 113 1103 l 249 1103 l 326 1199 l 404 1103 l 540 1103 l 457 1257 z "},"Ď":{"ha":639,"x_min":0,"x_max":0,"o":"m 411 157 l 263 157 l 263 0 l 442 0 b 590 143 507 0 590 76 l 590 883 b 442 1026 590 950 507 1026 l 263 1026 l 263 871 l 411 871 z m 49 1026 l 49 0 l 226 0 l 226 1026 z m 450 1103 l 533 1257 l 397 1257 l 319 1161 l 242 1257 l 106 1257 l 189 1103 z "},"Ĕ":{"ha":521,"x_min":0,"x_max":0,"o":"m 263 1026 l 263 871 l 492 871 l 492 1026 z m 49 1026 l 49 0 l 226 0 l 226 1026 z m 492 0 l 492 157 l 263 157 l 263 0 z m 454 465 l 454 622 l 263 622 l 263 465 z m 193 1213 l 193 1243 l 88 1243 l 88 1193 b 115 1132 88 1172 97 1153 b 175 1103 133 1113 154 1103 l 340 1103 b 401 1132 361 1103 382 1113 b 432 1193 422 1151 432 1172 l 432 1243 l 325 1243 l 325 1213 z "},"Ě":{"ha":521,"x_min":0,"x_max":0,"o":"m 263 1026 l 263 871 l 492 871 l 492 1026 z m 49 1026 l 49 0 l 226 0 l 226 1026 z m 492 0 l 492 157 l 263 157 l 263 0 z m 454 465 l 454 622 l 263 622 l 263 465 z m 390 1103 l 474 1257 l 338 1257 l 260 1161 l 182 1257 l 46 1257 l 129 1103 z "},"Ê":{"ha":521,"x_min":0,"x_max":0,"o":"m 263 1026 l 263 871 l 492 871 l 492 1026 z m 49 1026 l 49 0 l 226 0 l 226 1026 z m 492 0 l 492 157 l 263 157 l 263 0 z m 454 465 l 454 622 l 263 622 l 263 465 z m 129 1257 l 46 1103 l 182 1103 l 260 1199 l 338 1103 l 474 1103 l 390 1257 z "},"Ë":{"ha":521,"x_min":0,"x_max":0,"o":"m 263 1026 l 263 871 l 492 871 l 492 1026 z m 49 1026 l 49 0 l 226 0 l 226 1026 z m 492 0 l 492 157 l 263 157 l 263 0 z m 454 465 l 454 622 l 263 622 l 263 465 z m 78 1257 l 78 1103 l 242 1103 l 242 1257 z m 279 1257 l 279 1103 l 443 1103 l 443 1257 z "},"Ē":{"ha":521,"x_min":0,"x_max":0,"o":"m 263 1026 l 263 871 l 492 871 l 492 1026 z m 49 1026 l 49 0 l 226 0 l 226 1026 z m 492 0 l 492 157 l 263 157 l 263 0 z m 454 465 l 454 622 l 263 622 l 263 465 z m 88 1193 l 88 1103 l 432 1103 l 432 1193 z "},"Ğ":{"ha":653,"x_min":0,"x_max":0,"o":"m 604 883 b 456 1026 610 950 517 1026 l 263 1026 l 263 871 l 425 871 l 425 669 l 604 669 z m 197 1026 b 49 883 131 1031 49 949 l 49 143 b 197 0 49 75 131 0 l 226 0 l 226 1026 z m 456 0 b 604 143 521 -4 604 79 l 604 514 l 347 514 l 347 357 l 425 357 l 425 157 l 263 157 l 263 0 z m 260 1213 l 260 1243 l 154 1243 l 154 1193 b 182 1132 154 1172 164 1153 b 242 1103 200 1113 221 1103 l 407 1103 b 468 1132 428 1103 449 1113 b 499 1193 489 1151 499 1172 l 499 1243 l 392 1243 l 392 1213 z "},"Ĝ":{"ha":653,"x_min":0,"x_max":0,"o":"m 604 883 b 456 1026 610 950 517 1026 l 263 1026 l 263 871 l 425 871 l 425 669 l 604 669 z m 197 1026 b 49 883 131 1031 49 949 l 49 143 b 197 0 49 75 131 0 l 226 0 l 226 1026 z m 456 0 b 604 143 521 -4 604 79 l 604 514 l 347 514 l 347 357 l 425 357 l 425 157 l 263 157 l 263 0 z m 196 1257 l 113 1103 l 249 1103 l 326 1199 l 404 1103 l 540 1103 l 457 1257 z "},"Ĭ":{"ha":275,"x_min":0,"x_max":0,"o":"m 49 1026 l 49 0 l 226 0 l 226 1026 z m 71 1213 l 71 1243 l -35 1243 l -35 1193 b -7 1132 -35 1172 -25 1153 b 53 1103 11 1113 32 1103 l 218 1103 b 279 1132 239 1103 260 1113 b 310 1193 300 1151 310 1172 l 310 1243 l 203 1243 l 203 1213 z "},"Î":{"ha":275,"x_min":0,"x_max":0,"o":"m 49 1026 l 49 0 l 226 0 l 226 1026 z m 7 1257 l -76 1103 l 60 1103 l 138 1199 l 215 1103 l 351 1103 l 268 1257 z "},"Ï":{"ha":275,"x_min":0,"x_max":0,"o":"m 49 1026 l 49 0 l 226 0 l 226 1026 z m -44 1257 l -44 1103 l 119 1103 l 119 1257 z m 157 1257 l 157 1103 l 321 1103 l 321 1257 z "},"˙":{"ha":483,"x_min":0,"x_max":0,"o":"m 318 960 l 165 960 l 165 813 l 318 813 z "},"Ė":{"ha":521,"x_min":0,"x_max":0,"o":"m 263 1026 l 263 871 l 492 871 l 492 1026 z m 49 1026 l 49 0 l 226 0 l 226 1026 z m 492 0 l 492 157 l 263 157 l 263 0 z m 454 465 l 454 622 l 263 622 l 263 465 z m 336 1254 l 183 1254 l 183 1107 l 336 1107 z "},"Ċ":{"ha":653,"x_min":0,"x_max":0,"o":"m 604 883 b 456 1026 604 950 521 1026 l 263 1026 l 263 871 l 425 871 l 425 663 l 604 663 z m 197 1026 b 49 883 131 1026 49 951 l 49 143 b 197 0 49 75 131 0 l 226 0 l 226 1026 z m 456 0 b 604 143 521 -4 604 79 l 604 413 l 425 413 l 425 157 l 263 157 l 263 0 z m 403 1254 l 250 1254 l 250 1107 l 403 1107 z "},"Ĥ":{"ha":653,"x_min":0,"x_max":0,"o":"m 425 1026 l 425 593 l 263 593 l 263 436 l 425 436 l 425 0 l 604 0 l 604 1026 z m 49 1026 l 49 0 l 226 0 l 226 1026 z m 196 1257 l 113 1103 l 249 1103 l 326 1199 l 404 1103 l 540 1103 l 457 1257 z "},"İ":{"ha":275,"x_min":0,"x_max":0,"o":"m 49 1026 l 49 0 l 226 0 l 226 1026 z m 214 1254 l 61 1254 l 61 1107 l 214 1107 z "},"Ĩ":{"ha":275,"x_min":0,"x_max":0,"o":"m 49 1026 l 49 0 l 226 0 l 226 1026 z m -53 1151 l 31 1100 l 74 1172 l 185 1108 b 267 1128 208 1096 249 1100 l 328 1236 l 246 1286 l 203 1214 l 103 1271 b -1 1242 68 1292 19 1276 z "},"Ĳ":{"ha":851,"x_min":0,"x_max":0,"o":"m 49 1026 l 49 0 l 226 0 l 226 1026 z m 625 1026 l 625 0 l 654 0 b 804 143 721 0 804 75 l 804 1026 z m 469 157 l 469 381 l 297 381 l 297 143 b 446 0 297 75 379 0 l 590 0 l 590 157 z "},"Ĵ":{"ha":576,"x_min":0,"x_max":0,"o":"m 349 1026 l 349 0 l 378 0 b 528 143 444 0 528 75 l 528 1026 z m 193 157 l 193 381 l 21 381 l 21 143 b 169 0 21 75 103 0 l 314 0 l 314 157 z m 303 1257 l 219 1103 l 356 1103 l 433 1199 l 511 1103 l 647 1103 l 564 1257 z "},"Ĺ":{"ha":492,"x_min":0,"x_max":0,"o":"m 49 1026 l 49 0 l 226 0 l 226 1026 z m 478 0 l 478 157 l 263 157 l 263 0 z m 124 1257 l 54 1103 l 190 1103 l 301 1257 z "},"Ŀ":{"ha":492,"x_min":0,"x_max":0,"o":"m 49 1026 l 49 0 l 226 0 l 226 1026 z m 478 0 l 478 157 l 263 157 l 263 0 z m 472 590 l 319 590 l 319 443 l 472 443 z "},"Ń":{"ha":649,"x_min":0,"x_max":0,"o":"m 49 1026 l 436 0 l 600 0 l 213 1026 z m 49 925 l 49 0 l 226 0 l 226 454 z m 600 101 l 600 1026 l 422 1026 l 422 572 z m 313 1257 l 243 1103 l 379 1103 l 490 1257 z "},"Ň":{"ha":649,"x_min":0,"x_max":0,"o":"m 49 1026 l 436 0 l 600 0 l 213 1026 z m 49 925 l 49 0 l 226 0 l 226 454 z m 600 101 l 600 1026 l 422 1026 l 422 572 z m 454 1103 l 538 1257 l 401 1257 l 324 1161 l 246 1257 l 110 1257 l 193 1103 z "},"Ñ":{"ha":649,"x_min":0,"x_max":0,"o":"m 49 1026 l 436 0 l 600 0 l 213 1026 z m 49 925 l 49 0 l 226 0 l 226 454 z m 600 101 l 600 1026 l 422 1026 l 422 572 z m 133 1151 l 217 1100 l 260 1172 l 371 1108 b 453 1128 394 1096 435 1100 l 514 1236 l 432 1286 l 389 1214 l 289 1271 b 185 1242 254 1292 206 1276 z "},"Ó":{"ha":653,"x_min":0,"x_max":0,"o":"m 425 157 l 263 157 l 263 0 l 456 0 b 604 143 521 0 604 76 l 604 883 b 456 1026 604 950 521 1026 l 263 1026 l 263 871 l 425 871 z m 197 1026 b 49 883 131 1026 49 951 l 49 143 b 197 0 49 75 131 0 l 226 0 l 226 1026 z m 314 1257 l 244 1103 l 381 1103 l 492 1257 z "},"Ò":{"ha":653,"x_min":0,"x_max":0,"o":"m 425 157 l 263 157 l 263 0 l 456 0 b 604 143 521 0 604 76 l 604 883 b 456 1026 604 950 521 1026 l 263 1026 l 263 871 l 425 871 z m 197 1026 b 49 883 131 1026 49 951 l 49 143 b 197 0 49 75 131 0 l 226 0 l 226 1026 z m 161 1257 l 272 1103 l 408 1103 l 339 1257 z "},"Ŏ":{"ha":653,"x_min":0,"x_max":0,"o":"m 425 157 l 263 157 l 263 0 l 456 0 b 604 143 521 0 604 76 l 604 883 b 456 1026 604 950 521 1026 l 263 1026 l 263 871 l 425 871 z m 197 1026 b 49 883 131 1026 49 951 l 49 143 b 197 0 49 75 131 0 l 226 0 l 226 1026 z m 260 1213 l 260 1243 l 154 1243 l 154 1193 b 182 1132 154 1172 164 1153 b 242 1103 200 1113 221 1103 l 407 1103 b 468 1132 428 1103 449 1113 b 499 1193 489 1151 499 1172 l 499 1243 l 392 1243 l 392 1213 z "},"Ô":{"ha":653,"x_min":0,"x_max":0,"o":"m 425 157 l 263 157 l 263 0 l 456 0 b 604 143 521 0 604 76 l 604 883 b 456 1026 604 950 521 1026 l 263 1026 l 263 871 l 425 871 z m 197 1026 b 49 883 131 1026 49 951 l 49 143 b 197 0 49 75 131 0 l 226 0 l 226 1026 z m 196 1257 l 113 1103 l 249 1103 l 326 1199 l 404 1103 l 540 1103 l 457 1257 z "},"Ö":{"ha":653,"x_min":0,"x_max":0,"o":"m 425 157 l 263 157 l 263 0 l 456 0 b 604 143 521 0 604 76 l 604 883 b 456 1026 604 950 521 1026 l 263 1026 l 263 871 l 425 871 z m 197 1026 b 49 883 131 1026 49 951 l 49 143 b 197 0 49 75 131 0 l 226 0 l 226 1026 z m 143 1257 l 143 1103 l 307 1103 l 307 1257 z m 344 1257 l 344 1103 l 508 1103 l 508 1257 z "},"Ō":{"ha":653,"x_min":0,"x_max":0,"o":"m 425 157 l 263 157 l 263 0 l 456 0 b 604 143 521 0 604 76 l 604 883 b 456 1026 604 950 521 1026 l 263 1026 l 263 871 l 425 871 z m 197 1026 b 49 883 131 1026 49 951 l 49 143 b 197 0 49 75 131 0 l 226 0 l 226 1026 z m 154 1193 l 154 1103 l 499 1103 l 499 1193 z "},"Õ":{"ha":653,"x_min":0,"x_max":0,"o":"m 425 157 l 263 157 l 263 0 l 456 0 b 604 143 521 0 604 76 l 604 883 b 456 1026 604 950 521 1026 l 263 1026 l 263 871 l 425 871 z m 197 1026 b 49 883 131 1026 49 951 l 49 143 b 197 0 49 75 131 0 l 226 0 l 226 1026 z m 136 1151 l 219 1100 l 263 1172 l 374 1108 b 456 1128 397 1096 438 1100 l 517 1236 l 435 1286 l 392 1214 l 292 1271 b 188 1242 257 1292 208 1276 z "},"Ŕ":{"ha":624,"x_min":0,"x_max":0,"o":"m 263 593 l 263 436 l 411 436 l 411 0 l 589 0 l 589 397 b 496 508 589 453 558 490 l 496 517 b 589 629 558 532 589 569 l 589 883 b 440 1026 589 951 507 1026 l 263 1026 l 263 871 l 411 871 l 411 593 z m 228 1026 l 49 1026 l 49 0 l 228 0 z m 286 1257 l 217 1103 l 353 1103 l 464 1257 z "},"Ř":{"ha":624,"x_min":0,"x_max":0,"o":"m 263 593 l 263 436 l 411 436 l 411 0 l 589 0 l 589 397 b 496 508 589 453 558 490 l 496 517 b 589 629 558 532 589 569 l 589 883 b 440 1026 589 951 507 1026 l 263 1026 l 263 871 l 411 871 l 411 593 z m 228 1026 l 49 1026 l 49 0 l 228 0 z m 442 1103 l 525 1257 l 389 1257 l 311 1161 l 233 1257 l 97 1257 l 181 1103 z "},"Ś":{"ha":653,"x_min":0,"x_max":0,"o":"m 210 1026 b 61 883 142 1026 61 953 l 61 585 b 206 440 61 517 140 446 l 226 439 l 226 1026 z m 425 422 l 425 157 l 263 157 l 263 0 l 454 0 b 604 143 521 0 604 75 l 604 449 b 458 592 604 515 521 586 l 263 606 l 263 436 z m 49 299 l 49 143 b 197 0 49 75 131 0 l 226 0 l 226 299 z m 425 871 l 425 726 l 592 726 l 592 883 b 443 1026 592 950 508 1026 l 263 1026 l 263 871 z m 314 1257 l 244 1103 l 381 1103 l 492 1257 z "},"Š":{"ha":653,"x_min":0,"x_max":0,"o":"m 210 1026 b 61 883 142 1026 61 953 l 61 585 b 206 440 61 517 140 446 l 226 439 l 226 1026 z m 425 422 l 425 157 l 263 157 l 263 0 l 454 0 b 604 143 521 0 604 75 l 604 449 b 458 592 604 515 521 586 l 263 606 l 263 436 z m 49 299 l 49 143 b 197 0 49 75 131 0 l 226 0 l 226 299 z m 425 871 l 425 726 l 592 726 l 592 883 b 443 1026 592 950 508 1026 l 263 1026 l 263 871 z m 457 1103 l 540 1257 l 404 1257 l 326 1161 l 249 1257 l 113 1257 l 196 1103 z "},"Ŝ":{"ha":653,"x_min":0,"x_max":0,"o":"m 210 1026 b 61 883 142 1026 61 953 l 61 585 b 206 440 61 517 140 446 l 226 439 l 226 1026 z m 425 422 l 425 157 l 263 157 l 263 0 l 454 0 b 604 143 521 0 604 75 l 604 449 b 458 592 604 515 521 586 l 263 606 l 263 436 z m 49 299 l 49 143 b 197 0 49 75 131 0 l 226 0 l 226 299 z m 425 871 l 425 726 l 592 726 l 592 883 b 443 1026 592 950 508 1026 l 263 1026 l 263 871 z m 196 1257 l 113 1103 l 249 1103 l 326 1199 l 404 1103 l 540 1103 l 457 1257 z "},"Ť":{"ha":513,"x_min":0,"x_max":0,"o":"m 14 1026 l 14 871 l 499 871 l 499 1026 z m 167 0 l 346 0 l 346 835 l 167 835 z m 386 1103 l 469 1257 l 333 1257 l 256 1161 l 178 1257 l 42 1257 l 125 1103 z "},"Ú":{"ha":653,"x_min":0,"x_max":0,"o":"m 425 1026 l 425 157 l 263 157 l 263 0 l 456 0 b 604 143 521 0 604 76 l 604 1026 z m 49 1026 l 49 143 b 197 0 49 75 131 0 l 226 0 l 226 1026 z m 314 1257 l 244 1103 l 381 1103 l 492 1257 z "},"Ù":{"ha":653,"x_min":0,"x_max":0,"o":"m 425 1026 l 425 157 l 263 157 l 263 0 l 456 0 b 604 143 521 0 604 76 l 604 1026 z m 49 1026 l 49 143 b 197 0 49 75 131 0 l 226 0 l 226 1026 z m 161 1257 l 272 1103 l 408 1103 l 339 1257 z "},"Ŭ":{"ha":653,"x_min":0,"x_max":0,"o":"m 425 1026 l 425 157 l 263 157 l 263 0 l 456 0 b 604 143 521 0 604 76 l 604 1026 z m 49 1026 l 49 143 b 197 0 49 75 131 0 l 226 0 l 226 1026 z m 260 1213 l 260 1243 l 154 1243 l 154 1193 b 182 1132 154 1172 164 1153 b 242 1103 200 1113 221 1103 l 407 1103 b 468 1132 428 1103 449 1113 b 499 1193 489 1151 499 1172 l 499 1243 l 392 1243 l 392 1213 z "},"Û":{"ha":653,"x_min":0,"x_max":0,"o":"m 425 1026 l 425 157 l 263 157 l 263 0 l 456 0 b 604 143 521 0 604 76 l 604 1026 z m 49 1026 l 49 143 b 197 0 49 75 131 0 l 226 0 l 226 1026 z m 196 1257 l 113 1103 l 249 1103 l 326 1199 l 404 1103 l 540 1103 l 457 1257 z "},"Ü":{"ha":653,"x_min":0,"x_max":0,"o":"m 425 1026 l 425 157 l 263 157 l 263 0 l 456 0 b 604 143 521 0 604 76 l 604 1026 z m 49 1026 l 49 143 b 197 0 49 75 131 0 l 226 0 l 226 1026 z m 143 1257 l 143 1103 l 307 1103 l 307 1257 z m 344 1257 l 344 1103 l 508 1103 l 508 1257 z "},"Ū":{"ha":653,"x_min":0,"x_max":0,"o":"m 425 1026 l 425 157 l 263 157 l 263 0 l 456 0 b 604 143 521 0 604 76 l 604 1026 z m 49 1026 l 49 143 b 197 0 49 75 131 0 l 226 0 l 226 1026 z m 154 1193 l 154 1103 l 499 1103 l 499 1193 z "},"Ů":{"ha":653,"x_min":0,"x_max":0,"o":"m 425 1026 l 425 157 l 263 157 l 263 0 l 456 0 b 604 143 521 0 604 76 l 604 1026 z m 49 1026 l 49 143 b 197 0 49 75 131 0 l 226 0 l 226 1026 z m 179 1183 b 208 1122 179 1163 189 1142 b 271 1093 229 1103 250 1093 l 310 1093 l 310 1203 l 276 1203 l 276 1269 l 310 1269 l 310 1381 l 271 1381 b 208 1350 250 1381 229 1371 b 179 1289 189 1331 179 1310 z m 376 1269 l 376 1203 l 346 1203 l 346 1093 l 385 1093 b 472 1183 428 1093 472 1140 l 472 1289 b 385 1381 472 1332 428 1381 l 346 1381 l 346 1269 z "},"Ũ":{"ha":653,"x_min":0,"x_max":0,"o":"m 425 1026 l 425 157 l 263 157 l 263 0 l 456 0 b 604 143 521 0 604 76 l 604 1026 z m 49 1026 l 49 143 b 197 0 49 75 131 0 l 226 0 l 226 1026 z m 136 1151 l 219 1100 l 263 1172 l 374 1108 b 456 1128 397 1096 438 1100 l 517 1236 l 435 1286 l 392 1214 l 292 1271 b 188 1242 257 1292 208 1276 z "},"Ẃ":{"ha":799,"x_min":0,"x_max":0,"o":"m 301 0 l 186 1026 l 0 1026 l 169 0 z m 799 1026 l 613 1026 l 536 379 l 421 828 l 378 828 l 288 475 l 328 110 l 400 397 l 497 0 l 629 0 z m 386 1257 l 317 1103 l 453 1103 l 564 1257 z "},"Ŵ":{"ha":799,"x_min":0,"x_max":0,"o":"m 301 0 l 186 1026 l 0 1026 l 169 0 z m 799 1026 l 613 1026 l 536 379 l 421 828 l 378 828 l 288 475 l 328 110 l 400 397 l 497 0 l 629 0 z m 268 1257 l 185 1103 l 321 1103 l 399 1199 l 476 1103 l 613 1103 l 529 1257 z "},"Ẅ":{"ha":799,"x_min":0,"x_max":0,"o":"m 301 0 l 186 1026 l 0 1026 l 169 0 z m 799 1026 l 613 1026 l 536 379 l 421 828 l 378 828 l 288 475 l 328 110 l 400 397 l 497 0 l 629 0 z m 217 1257 l 217 1103 l 381 1103 l 381 1257 z m 418 1257 l 418 1103 l 582 1103 l 582 1257 z "},"Ẁ":{"ha":799,"x_min":0,"x_max":0,"o":"m 301 0 l 186 1026 l 0 1026 l 169 0 z m 799 1026 l 613 1026 l 536 379 l 421 828 l 378 828 l 288 475 l 328 110 l 400 397 l 497 0 l 629 0 z m 233 1257 l 344 1103 l 481 1103 l 411 1257 z "},"Ý":{"ha":569,"x_min":0,"x_max":0,"o":"m -14 1026 l 196 429 l 196 0 l 374 0 l 374 329 l 185 1026 z m 583 1026 l 385 1026 l 304 721 l 379 444 z m 272 1257 l 203 1103 l 339 1103 l 450 1257 z "},"Ŷ":{"ha":569,"x_min":0,"x_max":0,"o":"m -14 1026 l 196 429 l 196 0 l 374 0 l 374 329 l 185 1026 z m 583 1026 l 385 1026 l 304 721 l 379 444 z m 154 1257 l 71 1103 l 207 1103 l 285 1199 l 363 1103 l 499 1103 l 415 1257 z "},"Ÿ":{"ha":569,"x_min":0,"x_max":0,"o":"m -14 1026 l 196 429 l 196 0 l 374 0 l 374 329 l 185 1026 z m 583 1026 l 385 1026 l 304 721 l 379 444 z m 101 1257 l 101 1103 l 265 1103 l 265 1257 z m 303 1257 l 303 1103 l 467 1103 l 467 1257 z "},"Ỳ":{"ha":569,"x_min":0,"x_max":0,"o":"m -14 1026 l 196 429 l 196 0 l 374 0 l 374 329 l 185 1026 z m 583 1026 l 385 1026 l 304 721 l 379 444 z m 119 1257 l 231 1103 l 367 1103 l 297 1257 z "},"Ź":{"ha":639,"x_min":0,"x_max":0,"o":"m 161 0 l 610 871 l 610 1026 l 478 1026 l 29 157 l 29 0 z m 92 1026 l 92 871 l 357 871 l 438 1026 z m 558 0 l 558 157 l 282 157 l 201 0 z m 307 1257 l 238 1103 l 374 1103 l 485 1257 z "},"Ž":{"ha":639,"x_min":0,"x_max":0,"o":"m 161 0 l 610 871 l 610 1026 l 478 1026 l 29 157 l 29 0 z m 92 1026 l 92 871 l 357 871 l 438 1026 z m 558 0 l 558 157 l 282 157 l 201 0 z m 464 1103 l 547 1257 l 411 1257 l 333 1161 l 256 1257 l 119 1257 l 203 1103 z "},"Ż":{"ha":639,"x_min":0,"x_max":0,"o":"m 161 0 l 610 871 l 610 1026 l 478 1026 l 29 157 l 29 0 z m 92 1026 l 92 871 l 357 871 l 438 1026 z m 558 0 l 558 157 l 282 157 l 201 0 z m 410 1254 l 257 1254 l 257 1107 l 410 1107 z "},"Ќ":{"ha":635,"x_min":0,"x_max":0,"o":"m 49 1026 l 49 0 l 226 0 l 226 1026 z m 468 0 l 649 0 l 417 546 l 610 1026 l 438 1026 l 263 568 l 263 458 z m 306 1257 l 236 1103 l 372 1103 l 483 1257 z "},"Ў":{"ha":569,"x_min":0,"x_max":0,"o":"m 81 157 l 81 0 l 226 0 b 378 146 296 0 363 83 l 576 1026 l 386 1026 l 217 157 z m 183 1026 l -7 1026 l 193 215 l 269 603 z m 247 1185 l 247 1243 l 113 1243 l 113 1193 b 140 1132 113 1172 122 1153 b 200 1103 158 1113 179 1103 l 365 1103 b 426 1132 386 1103 407 1113 b 457 1193 447 1151 457 1172 l 457 1243 l 321 1243 l 321 1185 z "},"Ѓ":{"ha":492,"x_min":0,"x_max":0,"o":"m 478 871 l 478 1026 l 263 1026 l 263 871 z m 49 1026 l 49 0 l 226 0 l 226 1026 z m 233 1257 l 164 1103 l 300 1103 l 411 1257 z "},"Ј":{"ha":576,"x_min":0,"x_max":0,"o":"m 349 1026 l 349 0 l 378 0 b 528 143 444 0 528 75 l 528 1026 z m 193 157 l 193 381 l 21 381 l 21 143 b 169 0 21 75 103 0 l 314 0 l 314 157 z "},"Ѕ":{"ha":653,"x_min":0,"x_max":0,"o":"m 210 1026 b 61 883 142 1026 61 953 l 61 585 b 206 440 61 517 140 446 l 226 439 l 226 1026 z m 425 422 l 425 157 l 263 157 l 263 0 l 454 0 b 604 143 521 0 604 75 l 604 449 b 458 592 604 515 521 586 l 263 606 l 263 436 z m 49 299 l 49 143 b 197 0 49 75 131 0 l 226 0 l 226 299 z m 425 871 l 425 726 l 592 726 l 592 883 b 443 1026 592 950 508 1026 l 263 1026 l 263 871 z "},"І":{"ha":275,"x_min":0,"x_max":0,"o":"m 49 1026 l 49 0 l 226 0 l 226 1026 z "},"ѓ":{"ha":446,"x_min":0,"x_max":0,"o":"m 404 733 l 218 733 l 218 600 l 404 600 z m 35 0 l 188 0 l 188 733 l 35 733 z m 197 963 l 128 808 l 264 808 l 375 963 z "},"ѕ":{"ha":465,"x_min":0,"x_max":0,"o":"m 279 532 l 431 532 l 431 611 b 304 733 431 668 360 733 l 218 733 l 218 600 l 279 600 z m 163 733 b 35 611 106 733 35 669 l 35 439 b 163 317 35 382 106 317 l 188 314 l 188 733 z m 279 135 l 218 135 l 218 0 l 304 0 b 431 122 361 0 431 64 l 431 318 b 304 442 431 375 360 440 l 218 446 l 218 311 l 279 307 z m 188 201 l 35 201 l 35 122 b 163 0 35 61 104 0 l 188 0 z "},"ј":{"ha":240,"x_min":0,"x_max":0,"o":"m 46 733 l 46 -158 l -14 -158 l -14 -292 l 71 -292 b 157 -251 100 -292 129 -278 b 199 -169 185 -225 199 -199 l 199 733 z m 199 960 l 46 960 l 46 813 l 199 813 z "},"ќ":{"ha":486,"x_min":0,"x_max":0,"o":"m 339 0 l 493 0 l 332 390 l 456 733 l 313 733 l 218 464 l 218 300 z m 35 733 l 35 0 l 188 0 l 188 733 z m 189 963 l 119 808 l 256 808 l 367 963 z "},"ў":{"ha":474,"x_min":0,"x_max":0,"o":"m 200 890 l 200 949 l 65 949 l 65 899 b 93 838 65 878 75 858 b 153 808 111 818 132 808 l 318 808 b 379 838 339 808 360 818 b 410 899 400 857 410 878 l 410 949 l 274 949 l 274 890 z m 188 733 l 35 733 l 35 122 b 163 0 35 61 104 0 l 249 0 l 249 135 l 188 135 z m 304 -292 b 432 -169 360 -292 432 -225 l 432 733 l 279 733 l 279 -292 z m 188 -90 l 35 -90 l 35 -169 b 163 -292 35 -228 106 -292 l 249 -292 l 249 -158 l 188 -158 z "},"×":{"ha":713,"x_min":0,"x_max":0,"o":"m 135 361 l 189 307 l 356 474 l 524 307 l 578 361 l 410 528 l 578 696 l 524 750 l 356 582 l 189 750 l 135 696 l 301 528 z "},"˛":{"ha":633,"x_min":0,"x_max":0,"o":"m 571 0 l 633 0 l 624 26 l 538 26 b 476 -1 517 26 497 17 b 447 -61 457 -19 447 -40 l 447 -101 b 633 -151 447 -204 569 -189 l 633 -82 l 571 -82 z "},"Ą":{"ha":633,"x_min":0,"x_max":0,"o":"m 311 1026 l 447 0 l 478 0 b 447 -61 457 -19 447 -40 l 447 -101 b 476 -162 447 -122 457 -143 b 538 -193 496 -183 517 -193 l 633 -193 l 633 -82 l 571 -82 l 571 0 l 633 0 l 465 1026 z m 364 356 l 233 356 l 299 847 l 275 1026 l 169 1026 l 0 0 l 186 0 l 213 199 l 385 199 z "},"¸":{"ha":653,"x_min":0,"x_max":0,"o":"m 293 -100 l 226 -100 l 226 -169 b 403 -119 290 -207 403 -222 l 403 -37 b 313 50 403 6 357 50 l 261 50 l 261 -18 l 293 -18 z "},"Ć":{"ha":653,"x_min":0,"x_max":0,"o":"m 604 883 b 456 1026 604 950 521 1026 l 263 1026 l 263 871 l 425 871 l 425 663 l 604 663 z m 197 1026 b 49 883 131 1026 49 951 l 49 143 b 197 0 49 75 131 0 l 226 0 l 226 1026 z m 456 0 b 604 143 521 -4 604 79 l 604 413 l 425 413 l 425 157 l 263 157 l 263 0 z m 314 1257 l 244 1103 l 381 1103 l 492 1257 z "},"Ę":{"ha":521,"x_min":0,"x_max":0,"o":"m 263 1026 l 263 871 l 492 871 l 492 1026 z m 49 1026 l 49 0 l 226 0 l 226 1026 z m 492 0 l 492 157 l 263 157 l 263 0 z m 454 465 l 454 622 l 263 622 l 263 465 z m 429 0 l 492 0 l 482 26 l 396 26 b 335 -1 375 26 356 17 b 306 -61 315 -19 306 -40 l 306 -101 b 492 -151 306 -204 428 -189 l 492 -82 l 429 -82 z "},"Ç":{"ha":653,"x_min":0,"x_max":0,"o":"m 197 1026 b 49 883 131 1026 49 951 l 49 143 b 197 0 49 75 131 0 l 226 0 l 226 1026 z m 294 -100 l 228 -100 l 228 -169 b 404 -119 292 -207 404 -222 l 404 -37 b 393 0 404 -25 400 -11 l 456 0 b 604 143 521 0 604 76 l 604 413 l 425 413 l 425 157 l 263 157 l 263 -18 l 294 -18 z m 604 883 b 456 1026 604 950 521 1026 l 263 1026 l 263 871 l 425 871 l 425 663 l 604 663 z "},"Đ":{"ha":657,"x_min":0,"x_max":0,"o":"m 429 157 l 281 157 l 281 0 l 460 0 b 608 143 525 0 608 76 l 608 883 b 460 1026 608 950 525 1026 l 281 1026 l 281 871 l 429 871 z m 67 1026 l 67 574 l -14 574 l -14 456 l 67 456 l 67 0 l 244 0 l 244 456 l 325 456 l 325 574 l 244 574 l 244 1026 z "},"Ģ":{"ha":653,"x_min":0,"x_max":0,"o":"m 604 883 b 456 1026 610 950 517 1026 l 263 1026 l 263 871 l 425 871 l 425 669 l 604 669 z m 197 1026 b 49 883 131 1031 49 949 l 49 143 b 197 0 49 75 131 0 l 226 0 l 226 1026 z m 456 0 b 604 143 521 -4 604 79 l 604 514 l 347 514 l 347 357 l 425 357 l 425 157 l 263 157 l 263 0 z m 415 -58 l 263 -58 l 263 -292 l 326 -292 l 415 -206 z "},"Ġ":{"ha":653,"x_min":0,"x_max":0,"o":"m 604 883 b 456 1026 610 950 517 1026 l 263 1026 l 263 871 l 425 871 l 425 669 l 604 669 z m 197 1026 b 49 883 131 1031 49 949 l 49 143 b 197 0 49 75 131 0 l 226 0 l 226 1026 z m 456 0 b 604 143 521 -4 604 79 l 604 514 l 347 514 l 347 357 l 425 357 l 425 157 l 263 157 l 263 0 z m 417 1254 l 264 1254 l 264 1107 l 417 1107 z "},"Ħ":{"ha":674,"x_min":0,"x_max":0,"o":"m 425 1026 l 425 854 l 263 854 l 263 736 l 425 736 l 425 593 l 263 593 l 263 436 l 425 436 l 425 0 l 604 0 l 604 736 l 674 736 l 674 854 l 604 854 l 604 1026 z m -21 854 l -21 736 l 49 736 l 49 0 l 226 0 l 226 1026 l 49 1026 l 49 854 z "},"Į":{"ha":275,"x_min":0,"x_max":0,"o":"m 49 1026 l 49 0 l 78 0 b 76 -1 76 0 76 0 b 47 -61 57 -19 47 -40 l 47 -101 b 226 -151 47 -204 163 -189 l 226 -82 l 171 -82 l 171 0 l 226 0 l 226 1026 z "},"Ķ":{"ha":635,"x_min":0,"x_max":0,"o":"m 49 1026 l 49 0 l 226 0 l 226 1026 z m 468 0 l 649 0 l 417 546 l 610 1026 l 438 1026 l 263 568 l 263 458 z m 394 -58 l 242 -58 l 242 -292 l 306 -292 l 394 -206 z "},"Ľ":{"ha":492,"x_min":0,"x_max":0,"o":"m 49 1026 l 49 0 l 226 0 l 226 1026 z m 478 0 l 478 157 l 263 157 l 263 0 z m 478 1028 l 325 1028 l 325 794 l 389 794 l 478 881 z "},"Ļ":{"ha":492,"x_min":0,"x_max":0,"o":"m 49 1026 l 49 0 l 226 0 l 226 1026 z m 478 0 l 478 157 l 263 157 l 263 0 z m 322 -58 l 169 -58 l 169 -292 l 233 -292 l 322 -206 z "},"Ł":{"ha":492,"x_min":0,"x_max":0,"o":"m 49 1026 l 49 463 l -53 386 l -7 325 l 49 367 l 49 0 l 226 0 l 226 500 l 371 610 l 325 671 l 226 596 l 226 1026 z m 478 0 l 478 157 l 263 157 l 263 0 z "},"Ņ":{"ha":649,"x_min":0,"x_max":0,"o":"m 49 1026 l 436 0 l 600 0 l 213 1026 z m 49 925 l 49 0 l 226 0 l 226 454 z m 600 101 l 600 1026 l 422 1026 l 422 572 z m 401 -58 l 249 -58 l 249 -292 l 313 -292 l 401 -206 z "},"˝":{"ha":857,"x_min":0,"x_max":0,"o":"m 276 963 l 207 808 l 329 808 l 440 963 z m 486 963 l 417 808 l 539 808 l 650 963 z "},"Ő":{"ha":653,"x_min":0,"x_max":0,"o":"m 425 157 l 263 157 l 263 0 l 456 0 b 604 143 521 0 604 76 l 604 883 b 456 1026 604 950 521 1026 l 263 1026 l 263 871 l 425 871 z m 197 1026 b 49 883 131 1026 49 951 l 49 143 b 197 0 49 75 131 0 l 226 0 l 226 1026 z m 217 1257 l 147 1103 l 269 1103 l 381 1257 z m 426 1257 l 357 1103 l 479 1103 l 590 1257 z "},"Œ":{"ha":788,"x_min":0,"x_max":0,"o":"m 585 1026 l 585 871 l 758 871 l 758 1026 z m 371 1026 l 371 0 l 549 0 l 549 1026 z m 758 0 l 758 157 l 585 157 l 585 0 z m 721 465 l 721 622 l 585 622 l 585 465 z m 228 871 l 335 871 l 335 1026 l 197 1026 b 49 883 132 1026 49 950 l 49 143 b 197 0 49 76 132 0 l 335 0 l 335 157 l 228 157 z "},"Ŗ":{"ha":624,"x_min":0,"x_max":0,"o":"m 263 593 l 263 436 l 411 436 l 411 0 l 589 0 l 589 397 b 496 508 589 453 558 490 l 496 517 b 589 629 558 532 589 569 l 589 883 b 440 1026 589 951 507 1026 l 263 1026 l 263 871 l 411 871 l 411 593 z m 228 1026 l 49 1026 l 49 0 l 228 0 z m 389 -58 l 236 -58 l 236 -292 l 300 -292 l 389 -206 z "},"Ş":{"ha":653,"x_min":0,"x_max":0,"o":"m 294 -100 l 228 -100 l 228 -169 b 404 -119 292 -207 404 -222 l 404 -37 b 393 0 404 -25 400 -11 l 454 0 b 604 143 521 0 604 75 l 604 449 b 458 592 604 515 521 586 l 263 606 l 263 436 l 425 422 l 425 157 l 263 157 l 263 -18 l 294 -18 z m 210 1026 b 61 883 142 1026 61 953 l 61 585 b 206 440 61 517 140 446 l 226 439 l 226 1026 z m 425 871 l 425 726 l 592 726 l 592 883 b 443 1026 592 950 508 1026 l 263 1026 l 263 871 z m 49 299 l 49 143 b 197 0 49 75 131 0 l 226 0 l 226 299 z "},"Ș":{"ha":653,"x_min":0,"x_max":0,"o":"m 210 1026 b 61 883 142 1026 61 953 l 61 585 b 206 440 61 517 140 446 l 226 439 l 226 1026 z m 425 422 l 425 157 l 263 157 l 263 0 l 454 0 b 604 143 521 0 604 75 l 604 449 b 458 592 604 515 521 586 l 263 606 l 263 436 z m 49 299 l 49 143 b 197 0 49 75 131 0 l 226 0 l 226 299 z m 425 871 l 425 726 l 592 726 l 592 883 b 443 1026 592 950 508 1026 l 263 1026 l 263 871 z m 415 -58 l 263 -58 l 263 -292 l 326 -292 l 415 -206 z "},"Ţ":{"ha":513,"x_min":0,"x_max":0,"o":"m 14 1026 l 14 871 l 499 871 l 499 1026 z m 167 0 l 346 0 l 346 835 l 167 835 z m 333 -58 l 181 -58 l 181 -292 l 244 -292 l 333 -206 z "},"Ű":{"ha":653,"x_min":0,"x_max":0,"o":"m 425 1026 l 425 157 l 263 157 l 263 0 l 456 0 b 604 143 521 0 604 76 l 604 1026 z m 49 1026 l 49 143 b 197 0 49 75 131 0 l 226 0 l 226 1026 z m 175 1257 l 106 1103 l 228 1103 l 339 1257 z m 385 1257 l 315 1103 l 438 1103 l 549 1257 z "},"Ų":{"ha":653,"x_min":0,"x_max":0,"o":"m 425 1026 l 425 157 l 263 157 l 263 0 l 294 0 b 293 -1 293 0 293 0 b 264 -61 274 -19 264 -40 l 264 -101 b 450 -151 264 -204 386 -189 l 450 -82 l 388 -82 l 388 0 l 456 0 b 604 143 521 0 604 76 l 604 1026 z m 49 1026 l 49 143 b 197 0 49 75 131 0 l 226 0 l 226 1026 z "},"á":{"ha":465,"x_min":0,"x_max":0,"o":"m 279 0 l 431 0 l 431 611 b 304 733 431 668 360 733 l 279 733 z m 249 331 l 249 464 l 163 464 b 35 342 106 464 35 400 l 35 122 b 163 0 35 61 104 0 l 249 0 l 249 135 l 188 135 l 188 331 z m 249 600 l 249 733 l 163 733 b 35 611 106 733 35 669 l 35 532 l 188 532 l 188 600 z m 221 963 l 151 808 l 288 808 l 399 963 z "},"à":{"ha":465,"x_min":0,"x_max":0,"o":"m 279 0 l 431 0 l 431 611 b 304 733 431 668 360 733 l 279 733 z m 249 331 l 249 464 l 163 464 b 35 342 106 464 35 400 l 35 122 b 163 0 35 61 104 0 l 249 0 l 249 135 l 188 135 l 188 331 z m 249 600 l 249 733 l 163 733 b 35 611 106 733 35 669 l 35 532 l 188 532 l 188 600 z m 67 963 l 178 808 l 314 808 l 244 963 z "},"ă":{"ha":465,"x_min":0,"x_max":0,"o":"m 279 0 l 431 0 l 431 611 b 304 733 431 668 360 733 l 279 733 z m 249 331 l 249 464 l 163 464 b 35 342 106 464 35 400 l 35 122 b 163 0 35 61 104 0 l 249 0 l 249 135 l 188 135 l 188 331 z m 249 600 l 249 733 l 163 733 b 35 611 106 733 35 669 l 35 532 l 188 532 l 188 600 z m 167 918 l 167 949 l 61 949 l 61 899 b 89 838 61 878 71 858 b 149 808 107 818 128 808 l 314 808 b 375 838 335 808 356 818 b 406 899 396 857 406 878 l 406 949 l 299 949 l 299 918 z "},"â":{"ha":465,"x_min":0,"x_max":0,"o":"m 279 0 l 431 0 l 431 611 b 304 733 431 668 360 733 l 279 733 z m 249 331 l 249 464 l 163 464 b 35 342 106 464 35 400 l 35 122 b 163 0 35 61 104 0 l 249 0 l 249 135 l 188 135 l 188 331 z m 249 600 l 249 733 l 163 733 b 35 611 106 733 35 669 l 35 532 l 188 532 l 188 600 z m 103 963 l 19 808 l 156 808 l 233 904 l 311 808 l 447 808 l 364 963 z "},"ä":{"ha":465,"x_min":0,"x_max":0,"o":"m 279 0 l 431 0 l 431 611 b 304 733 431 668 360 733 l 279 733 z m 249 331 l 249 464 l 163 464 b 35 342 106 464 35 400 l 35 122 b 163 0 35 61 104 0 l 249 0 l 249 135 l 188 135 l 188 331 z m 249 600 l 249 733 l 163 733 b 35 611 106 733 35 669 l 35 532 l 188 532 l 188 600 z m 50 963 l 50 808 l 214 808 l 214 963 z m 251 963 l 251 808 l 415 808 l 415 963 z "},"ā":{"ha":465,"x_min":0,"x_max":0,"o":"m 279 0 l 431 0 l 431 611 b 304 733 431 668 360 733 l 279 733 z m 249 331 l 249 464 l 163 464 b 35 342 106 464 35 400 l 35 122 b 163 0 35 61 104 0 l 249 0 l 249 135 l 188 135 l 188 331 z m 249 600 l 249 733 l 163 733 b 35 611 106 733 35 669 l 35 532 l 188 532 l 188 600 z m 61 899 l 61 808 l 406 808 l 406 899 z "},"ą":{"ha":465,"x_min":0,"x_max":0,"o":"m 368 0 l 431 0 l 431 611 b 304 733 431 668 360 733 l 279 733 l 279 3 b 274 -1 276 1 275 0 b 244 -61 254 -19 244 -40 l 244 -101 b 431 -151 244 -204 367 -189 l 431 -82 l 368 -82 z m 249 331 l 249 464 l 163 464 b 35 342 106 464 35 400 l 35 122 b 163 0 35 61 104 0 l 249 0 l 249 135 l 188 135 l 188 331 z m 249 600 l 249 733 l 163 733 b 35 611 106 733 35 669 l 35 532 l 188 532 l 188 600 z "},"å":{"ha":465,"x_min":0,"x_max":0,"o":"m 279 0 l 431 0 l 431 611 b 304 733 431 668 360 733 l 279 733 z m 249 331 l 249 464 l 163 464 b 35 342 106 464 35 400 l 35 122 b 163 0 35 61 104 0 l 249 0 l 249 135 l 188 135 l 188 331 z m 249 600 l 249 733 l 163 733 b 35 611 106 733 35 669 l 35 532 l 188 532 l 188 600 z m 86 889 b 115 828 86 868 96 847 b 178 799 136 808 157 799 l 217 799 l 217 908 l 183 908 l 183 975 l 217 975 l 217 1086 l 178 1086 b 115 1056 157 1086 136 1076 b 86 994 96 1036 86 1015 z m 283 975 l 283 908 l 253 908 l 253 799 l 292 799 b 379 889 335 799 379 846 l 379 994 b 292 1086 379 1038 335 1086 l 253 1086 l 253 975 z "},"ã":{"ha":465,"x_min":0,"x_max":0,"o":"m 279 0 l 431 0 l 431 611 b 304 733 431 668 360 733 l 279 733 z m 249 331 l 249 464 l 163 464 b 35 342 106 464 35 400 l 35 122 b 163 0 35 61 104 0 l 249 0 l 249 135 l 188 135 l 188 331 z m 249 600 l 249 733 l 163 733 b 35 611 106 733 35 669 l 35 532 l 188 532 l 188 600 z m 43 857 l 126 806 l 169 878 l 281 814 b 363 833 304 801 344 806 l 424 942 l 342 992 l 299 919 l 199 976 b 94 947 164 997 115 982 z "},"ć":{"ha":467,"x_min":0,"x_max":0,"o":"m 163 733 b 35 611 106 733 35 669 l 35 122 b 163 0 35 61 104 0 l 188 0 l 188 733 z m 279 474 l 432 474 l 432 611 b 304 733 432 667 360 733 l 218 733 l 218 600 l 279 600 z m 279 135 l 218 135 l 218 0 l 304 0 b 432 122 361 0 432 65 l 432 294 l 279 294 z m 221 963 l 151 808 l 288 808 l 399 963 z "},"č":{"ha":467,"x_min":0,"x_max":0,"o":"m 163 733 b 35 611 106 733 35 669 l 35 122 b 163 0 35 61 104 0 l 188 0 l 188 733 z m 279 474 l 432 474 l 432 611 b 304 733 432 667 360 733 l 218 733 l 218 600 l 279 600 z m 279 135 l 218 135 l 218 0 l 304 0 b 432 122 361 0 432 65 l 432 294 l 279 294 z m 364 808 l 447 963 l 311 963 l 233 867 l 156 963 l 19 963 l 103 808 z "},"ĉ":{"ha":467,"x_min":0,"x_max":0,"o":"m 163 733 b 35 611 106 733 35 669 l 35 122 b 163 0 35 61 104 0 l 188 0 l 188 733 z m 279 474 l 432 474 l 432 611 b 304 733 432 667 360 733 l 218 733 l 218 600 l 279 600 z m 279 135 l 218 135 l 218 0 l 304 0 b 432 122 361 0 432 65 l 432 294 l 279 294 z m 103 963 l 19 808 l 156 808 l 233 904 l 311 808 l 447 808 l 364 963 z "},"ċ":{"ha":467,"x_min":0,"x_max":0,"o":"m 163 733 b 35 611 106 733 35 669 l 35 122 b 163 0 35 61 104 0 l 188 0 l 188 733 z m 279 474 l 432 474 l 432 611 b 304 733 432 667 360 733 l 218 733 l 218 600 l 279 600 z m 279 135 l 218 135 l 218 0 l 304 0 b 432 122 361 0 432 65 l 432 294 l 279 294 z m 310 960 l 157 960 l 157 813 l 310 813 z "},"ç":{"ha":467,"x_min":0,"x_max":0,"o":"m 163 733 b 35 611 106 733 35 669 l 35 122 b 163 0 35 61 104 0 l 188 0 l 188 733 z m 250 -100 l 183 -100 l 183 -169 b 360 -119 247 -207 360 -222 l 360 -37 b 343 8 360 -21 353 -4 b 432 122 389 28 432 78 l 432 294 l 279 294 l 279 135 l 218 135 l 218 -18 l 250 -18 z m 279 474 l 432 474 l 432 611 b 304 733 432 667 360 733 l 218 733 l 218 600 l 279 600 z "},"ď":{"ha":629,"x_min":0,"x_max":0,"o":"m 249 600 l 249 733 l 163 733 b 35 611 106 733 35 669 l 35 122 b 163 0 35 61 104 0 l 249 0 l 249 135 l 188 135 l 188 600 z m 279 0 l 432 0 l 432 1028 l 279 1028 z m 622 1028 l 469 1028 l 469 794 l 533 794 l 622 881 z "},"Ț":{"ha":513,"x_min":0,"x_max":0,"o":"m 14 1026 l 14 871 l 499 871 l 499 1026 z m 167 0 l 346 0 l 346 835 l 167 835 z m 331 -58 l 178 -58 l 178 -292 l 242 -292 l 331 -206 z "},"ẃ":{"ha":613,"x_min":0,"x_max":0,"o":"m 236 0 l 154 733 l 0 733 l 121 0 z m 613 733 l 458 733 l 404 271 l 322 592 l 290 592 l 229 351 l 258 90 l 306 283 l 376 0 l 493 0 z m 294 963 l 225 808 l 361 808 l 472 963 z "},"ŵ":{"ha":613,"x_min":0,"x_max":0,"o":"m 236 0 l 154 733 l 0 733 l 121 0 z m 613 733 l 458 733 l 404 271 l 322 592 l 290 592 l 229 351 l 258 90 l 306 283 l 376 0 l 493 0 z m 175 963 l 92 808 l 228 808 l 306 904 l 383 808 l 519 808 l 436 963 z "},"ẅ":{"ha":613,"x_min":0,"x_max":0,"o":"m 236 0 l 154 733 l 0 733 l 121 0 z m 613 733 l 458 733 l 404 271 l 322 592 l 290 592 l 229 351 l 258 90 l 306 283 l 376 0 l 493 0 z m 124 963 l 124 808 l 288 808 l 288 963 z m 325 963 l 325 808 l 489 808 l 489 963 z "},"ẁ":{"ha":613,"x_min":0,"x_max":0,"o":"m 236 0 l 154 733 l 0 733 l 121 0 z m 613 733 l 458 733 l 404 271 l 322 592 l 290 592 l 229 351 l 258 90 l 306 283 l 376 0 l 493 0 z m 140 963 l 251 808 l 388 808 l 318 963 z "},"ý":{"ha":471,"x_min":0,"x_max":0,"o":"m 188 733 l 35 733 l 35 122 b 163 0 35 61 104 0 l 249 0 l 249 135 l 188 135 z m 304 -292 b 432 -169 360 -292 432 -225 l 432 733 l 279 733 l 279 -292 z m 188 -90 l 35 -90 l 35 -169 b 163 -292 35 -228 106 -292 l 249 -292 l 249 -158 l 188 -158 z m 224 963 l 154 808 l 290 808 l 401 963 z "},"ŷ":{"ha":471,"x_min":0,"x_max":0,"o":"m 188 733 l 35 733 l 35 122 b 163 0 35 61 104 0 l 249 0 l 249 135 l 188 135 z m 304 -292 b 432 -169 360 -292 432 -225 l 432 733 l 279 733 l 279 -292 z m 188 -90 l 35 -90 l 35 -169 b 163 -292 35 -228 106 -292 l 249 -292 l 249 -158 l 188 -158 z m 106 963 l 22 808 l 158 808 l 236 904 l 314 808 l 450 808 l 367 963 z "},"ÿ":{"ha":471,"x_min":0,"x_max":0,"o":"m 188 733 l 35 733 l 35 122 b 163 0 35 61 104 0 l 249 0 l 249 135 l 188 135 z m 304 -292 b 432 -169 360 -292 432 -225 l 432 733 l 279 733 l 279 -292 z m 188 -90 l 35 -90 l 35 -169 b 163 -292 35 -228 106 -292 l 249 -292 l 249 -158 l 188 -158 z m 53 963 l 53 808 l 217 808 l 217 963 z m 254 963 l 254 808 l 418 808 l 418 963 z "},"ỳ":{"ha":471,"x_min":0,"x_max":0,"o":"m 188 733 l 35 733 l 35 122 b 163 0 35 61 104 0 l 249 0 l 249 135 l 188 135 z m 304 -292 b 432 -169 360 -292 432 -225 l 432 733 l 279 733 l 279 -292 z m 188 -90 l 35 -90 l 35 -169 b 163 -292 35 -228 106 -292 l 249 -292 l 249 -158 l 188 -158 z m 69 963 l 181 808 l 317 808 l 247 963 z "},"ź":{"ha":439,"x_min":0,"x_max":0,"o":"m 51 600 l 218 600 l 283 733 l 51 733 z m 386 0 l 386 135 l 222 135 l 157 0 z m 21 0 l 125 0 l 418 600 l 418 733 l 314 733 l 21 133 z m 207 963 l 138 808 l 274 808 l 385 963 z "},"ž":{"ha":439,"x_min":0,"x_max":0,"o":"m 51 600 l 218 600 l 283 733 l 51 733 z m 386 0 l 386 135 l 222 135 l 157 0 z m 21 0 l 125 0 l 418 600 l 418 733 l 314 733 l 21 133 z m 350 808 l 433 963 l 297 963 l 219 867 l 142 963 l 6 963 l 89 808 z "},"ż":{"ha":439,"x_min":0,"x_max":0,"o":"m 51 600 l 218 600 l 283 733 l 51 733 z m 386 0 l 386 135 l 222 135 l 157 0 z m 21 0 l 125 0 l 418 600 l 418 733 l 314 733 l 21 133 z m 296 960 l 143 960 l 143 813 l 296 813 z "},"€":{"ha":635,"x_min":0,"x_max":0,"o":"m 219 1028 l 190 1028 b 42 883 124 1028 42 951 l 42 682 l -36 682 l -36 553 l 42 553 l 42 475 l -36 475 l -36 346 l 42 346 l 42 143 b 190 0 42 75 124 0 l 219 0 z m 256 871 l 418 871 l 418 768 l 597 768 l 597 883 b 449 1028 597 950 514 1028 l 256 1028 z m 256 0 l 449 0 b 597 143 514 0 597 76 l 597 258 l 418 258 l 418 157 l 256 157 z m 256 682 l 256 553 l 501 553 l 501 682 z m 256 475 l 256 346 l 501 346 l 501 475 z "},"Ŧ":{"ha":513,"x_min":0,"x_max":0,"o":"m 42 593 l 42 475 l 167 475 l 167 0 l 346 0 l 346 475 l 471 475 l 471 593 l 346 593 l 346 835 l 167 835 l 167 593 z m 14 1026 l 14 871 l 499 871 l 499 1026 z "}," ":{"ha":208,"x_min":0,"x_max":0,"o":""},"Ø":{"ha":653,"x_min":0,"x_max":0,"o":"m 263 325 l 390 550 l 390 706 l 263 481 z m 425 157 l 263 157 l 263 0 l 456 0 b 604 143 521 0 604 76 l 604 883 b 456 1026 604 950 521 1026 l 263 1026 l 263 871 l 425 871 z m 197 1026 b 49 883 131 1026 49 951 l 49 143 b 197 0 49 75 131 0 l 226 0 l 226 1026 z "},"Ǿ":{"ha":653,"x_min":0,"x_max":0,"o":"m 263 325 l 390 550 l 390 706 l 263 481 z m 425 157 l 263 157 l 263 0 l 456 0 b 604 143 521 0 604 76 l 604 883 b 456 1026 604 950 521 1026 l 263 1026 l 263 871 l 425 871 z m 197 1026 b 49 883 131 1026 49 951 l 49 143 b 197 0 49 75 131 0 l 226 0 l 226 1026 z m 314 1257 l 244 1103 l 381 1103 l 492 1257 z "},"æ":{"ha":710,"x_min":0,"x_max":0,"o":"m 426 733 b 354 676 410 733 371 714 b 283 733 338 714 299 733 l 278 733 l 278 122 l 278 117 l 278 0 l 431 0 l 431 733 z m 461 404 l 461 269 l 675 269 l 674 611 b 547 733 674 668 603 733 l 461 733 l 461 600 l 522 600 l 522 404 z m 249 331 l 249 464 l 163 464 b 35 342 106 464 35 400 l 35 122 b 163 0 35 61 104 0 l 249 0 l 249 135 l 188 135 l 188 331 z m 249 600 l 249 733 l 163 733 b 35 611 106 733 35 669 l 35 532 l 188 532 l 188 600 z m 461 135 l 461 0 l 547 0 b 674 122 604 0 674 64 l 674 201 l 522 201 l 522 135 z "},"ǽ":{"ha":710,"x_min":0,"x_max":0,"o":"m 426 733 b 354 676 410 733 371 714 b 283 733 338 714 299 733 l 278 733 l 278 122 l 278 117 l 278 0 l 431 0 l 431 733 z m 461 404 l 461 269 l 675 269 l 674 611 b 547 733 674 668 603 733 l 461 733 l 461 600 l 522 600 l 522 404 z m 249 331 l 249 464 l 163 464 b 35 342 106 464 35 400 l 35 122 b 163 0 35 61 104 0 l 249 0 l 249 135 l 188 135 l 188 331 z m 249 600 l 249 733 l 163 733 b 35 611 106 733 35 669 l 35 532 l 188 532 l 188 600 z m 461 135 l 461 0 l 547 0 b 674 122 604 0 674 64 l 674 201 l 522 201 l 522 135 z m 342 963 l 272 808 l 408 808 l 519 963 z "},"đ":{"ha":474,"x_min":0,"x_max":0,"o":"m 279 0 l 432 0 l 432 813 l 501 813 l 501 931 l 432 931 l 432 1028 l 279 1028 l 279 931 l 210 931 l 210 813 l 279 813 z m 249 600 l 249 733 l 163 733 b 35 611 106 733 35 669 l 35 122 b 163 0 35 61 104 0 l 249 0 l 249 135 l 188 135 l 188 600 z "},"é":{"ha":467,"x_min":0,"x_max":0,"o":"m 218 135 l 218 0 l 304 0 b 431 122 361 0 431 64 l 431 201 l 279 201 l 279 135 z m 218 404 l 218 269 l 432 269 l 431 611 b 304 733 431 668 360 733 l 218 733 l 218 600 l 279 600 l 279 404 z m 163 733 b 35 611 106 733 35 669 l 35 122 b 163 0 35 61 104 0 l 188 0 l 188 733 z m 221 963 l 151 808 l 288 808 l 399 963 z "},"ĕ":{"ha":467,"x_min":0,"x_max":0,"o":"m 218 135 l 218 0 l 304 0 b 431 122 361 0 431 64 l 431 201 l 279 201 l 279 135 z m 218 404 l 218 269 l 432 269 l 431 611 b 304 733 431 668 360 733 l 218 733 l 218 600 l 279 600 l 279 404 z m 163 733 b 35 611 106 733 35 669 l 35 122 b 163 0 35 61 104 0 l 188 0 l 188 733 z m 167 918 l 167 949 l 61 949 l 61 899 b 89 838 61 878 71 858 b 149 808 107 818 128 808 l 314 808 b 375 838 335 808 356 818 b 406 899 396 857 406 878 l 406 949 l 299 949 l 299 918 z "},"ě":{"ha":467,"x_min":0,"x_max":0,"o":"m 218 135 l 218 0 l 304 0 b 431 122 361 0 431 64 l 431 201 l 279 201 l 279 135 z m 218 404 l 218 269 l 432 269 l 431 611 b 304 733 431 668 360 733 l 218 733 l 218 600 l 279 600 l 279 404 z m 163 733 b 35 611 106 733 35 669 l 35 122 b 163 0 35 61 104 0 l 188 0 l 188 733 z m 364 808 l 447 963 l 311 963 l 233 867 l 156 963 l 19 963 l 103 808 z "},"ê":{"ha":467,"x_min":0,"x_max":0,"o":"m 218 135 l 218 0 l 304 0 b 431 122 361 0 431 64 l 431 201 l 279 201 l 279 135 z m 218 404 l 218 269 l 432 269 l 431 611 b 304 733 431 668 360 733 l 218 733 l 218 600 l 279 600 l 279 404 z m 163 733 b 35 611 106 733 35 669 l 35 122 b 163 0 35 61 104 0 l 188 0 l 188 733 z m 103 963 l 19 808 l 156 808 l 233 904 l 311 808 l 447 808 l 364 963 z "},"ë":{"ha":467,"x_min":0,"x_max":0,"o":"m 218 135 l 218 0 l 304 0 b 431 122 361 0 431 64 l 431 201 l 279 201 l 279 135 z m 218 404 l 218 269 l 432 269 l 431 611 b 304 733 431 668 360 733 l 218 733 l 218 600 l 279 600 l 279 404 z m 163 733 b 35 611 106 733 35 669 l 35 122 b 163 0 35 61 104 0 l 188 0 l 188 733 z m 51 963 l 51 808 l 215 808 l 215 963 z m 253 963 l 253 808 l 417 808 l 417 963 z "},"ė":{"ha":467,"x_min":0,"x_max":0,"o":"m 218 135 l 218 0 l 304 0 b 431 122 361 0 431 64 l 431 201 l 279 201 l 279 135 z m 218 404 l 218 269 l 432 269 l 431 611 b 304 733 431 668 360 733 l 218 733 l 218 600 l 279 600 l 279 404 z m 163 733 b 35 611 106 733 35 669 l 35 122 b 163 0 35 61 104 0 l 188 0 l 188 733 z m 310 960 l 157 960 l 157 813 l 310 813 z "},"è":{"ha":467,"x_min":0,"x_max":0,"o":"m 218 135 l 218 0 l 304 0 b 431 122 361 0 431 64 l 431 201 l 279 201 l 279 135 z m 218 404 l 218 269 l 432 269 l 431 611 b 304 733 431 668 360 733 l 218 733 l 218 600 l 279 600 l 279 404 z m 163 733 b 35 611 106 733 35 669 l 35 122 b 163 0 35 61 104 0 l 188 0 l 188 733 z m 68 963 l 179 808 l 315 808 l 246 963 z "},"ē":{"ha":467,"x_min":0,"x_max":0,"o":"m 218 135 l 218 0 l 304 0 b 431 122 361 0 431 64 l 431 201 l 279 201 l 279 135 z m 218 404 l 218 269 l 432 269 l 431 611 b 304 733 431 668 360 733 l 218 733 l 218 600 l 279 600 l 279 404 z m 163 733 b 35 611 106 733 35 669 l 35 122 b 163 0 35 61 104 0 l 188 0 l 188 733 z m 61 899 l 61 808 l 406 808 l 406 899 z "},"ę":{"ha":467,"x_min":0,"x_max":0,"o":"m 163 733 b 35 611 106 733 35 669 l 35 122 b 163 0 35 61 104 0 l 188 0 l 188 733 z m 218 404 l 218 269 l 432 269 l 431 611 b 304 733 431 668 360 733 l 218 733 l 218 600 l 279 600 l 279 404 z m 369 0 l 408 63 b 431 122 421 82 431 101 l 431 201 l 279 201 l 279 135 l 218 135 l 218 0 l 275 0 b 246 -61 256 -18 246 -40 l 246 -101 b 432 -151 246 -204 368 -189 l 432 -82 l 369 -82 z "},"ğ":{"ha":474,"x_min":0,"x_max":0,"o":"m 188 600 l 249 600 l 249 733 l 163 733 b 35 611 106 733 35 669 l 35 122 b 163 0 35 61 104 0 l 249 0 l 249 135 l 188 135 z m 188 -90 l 35 -90 l 35 -169 b 163 -292 35 -228 106 -292 l 249 -292 l 249 -158 l 188 -158 z m 304 -292 b 432 -169 360 -292 432 -225 l 432 733 l 279 733 l 279 -292 z m 171 918 l 171 949 l 65 949 l 65 899 b 93 838 65 878 75 858 b 153 808 111 818 132 808 l 318 808 b 379 838 339 808 360 818 b 410 899 400 857 410 878 l 410 949 l 303 949 l 303 918 z "},"ĝ":{"ha":474,"x_min":0,"x_max":0,"o":"m 188 600 l 249 600 l 249 733 l 163 733 b 35 611 106 733 35 669 l 35 122 b 163 0 35 61 104 0 l 249 0 l 249 135 l 188 135 z m 188 -90 l 35 -90 l 35 -169 b 163 -292 35 -228 106 -292 l 249 -292 l 249 -158 l 188 -158 z m 304 -292 b 432 -169 360 -292 432 -225 l 432 733 l 279 733 l 279 -292 z m 107 963 l 24 808 l 160 808 l 238 904 l 315 808 l 451 808 l 368 963 z "},"ģ":{"ha":474,"x_min":0,"x_max":0,"o":"m 188 600 l 249 600 l 249 733 l 163 733 b 35 611 106 733 35 669 l 35 122 b 163 0 35 61 104 0 l 249 0 l 249 135 l 188 135 z m 188 -90 l 35 -90 l 35 -169 b 163 -292 35 -228 106 -292 l 249 -292 l 249 -158 l 188 -158 z m 304 -292 b 432 -169 360 -292 432 -225 l 432 733 l 279 733 l 279 -292 z m 160 794 l 313 794 l 313 1028 l 249 1028 l 160 942 z "},"ġ":{"ha":474,"x_min":0,"x_max":0,"o":"m 188 600 l 249 600 l 249 733 l 163 733 b 35 611 106 733 35 669 l 35 122 b 163 0 35 61 104 0 l 249 0 l 249 135 l 188 135 z m 188 -90 l 35 -90 l 35 -169 b 163 -292 35 -228 106 -292 l 249 -292 l 249 -158 l 188 -158 z m 304 -292 b 432 -169 360 -292 432 -225 l 432 733 l 279 733 l 279 -292 z m 314 960 l 161 960 l 161 813 l 314 813 z "},"ķ":{"ha":500,"x_min":0,"x_max":0,"o":"m 346 0 l 500 0 l 339 390 l 463 733 l 319 733 l 225 464 l 225 300 z m 42 1028 l 42 0 l 194 0 l 194 1028 z m 326 -58 l 174 -58 l 174 -292 l 238 -292 l 326 -206 z "},"ń":{"ha":467,"x_min":0,"x_max":0,"o":"m 279 0 l 432 0 l 432 611 b 304 733 432 667 360 733 l 218 733 l 218 600 l 279 600 z m 35 733 l 35 0 l 188 0 l 188 733 z m 207 963 l 138 808 l 274 808 l 385 963 z "},"ŉ":{"ha":544,"x_min":0,"x_max":0,"o":"m 357 0 l 510 0 l 510 611 b 382 733 510 667 438 733 l 296 733 l 296 600 l 357 600 z m 113 733 l 113 0 l 265 0 l 265 733 z m 154 1026 l 1 1026 l 1 793 l 65 793 l 154 879 z "},"ň":{"ha":467,"x_min":0,"x_max":0,"o":"m 279 0 l 432 0 l 432 611 b 304 733 432 667 360 733 l 218 733 l 218 600 l 279 600 z m 35 733 l 35 0 l 188 0 l 188 733 z m 364 808 l 447 963 l 311 963 l 233 867 l 156 963 l 19 963 l 103 808 z "},"ņ":{"ha":467,"x_min":0,"x_max":0,"o":"m 279 0 l 432 0 l 432 611 b 304 733 432 667 360 733 l 218 733 l 218 600 l 279 600 z m 35 733 l 35 0 l 188 0 l 188 733 z m 310 -58 l 157 -58 l 157 -292 l 221 -292 l 310 -206 z "},"ñ":{"ha":467,"x_min":0,"x_max":0,"o":"m 279 0 l 432 0 l 432 611 b 304 733 432 667 360 733 l 218 733 l 218 600 l 279 600 z m 35 733 l 35 0 l 188 0 l 188 733 z m 43 857 l 126 806 l 169 878 l 281 814 b 363 833 304 801 344 806 l 424 942 l 342 992 l 299 919 l 199 976 b 94 947 164 997 115 982 z "},"ŏ":{"ha":467,"x_min":0,"x_max":0,"o":"m 163 733 b 35 611 106 733 35 669 l 35 122 b 163 0 35 61 104 0 l 188 0 l 188 733 z m 279 135 l 218 135 l 218 0 l 304 0 b 432 122 361 0 432 65 l 432 611 b 304 733 432 667 360 733 l 218 733 l 218 600 l 279 600 z m 167 918 l 167 949 l 61 949 l 61 899 b 89 838 61 878 71 858 b 149 808 107 818 128 808 l 314 808 b 375 838 335 808 356 818 b 406 899 396 857 406 878 l 406 949 l 299 949 l 299 918 z "},"ö":{"ha":467,"x_min":0,"x_max":0,"o":"m 163 733 b 35 611 106 733 35 669 l 35 122 b 163 0 35 61 104 0 l 188 0 l 188 733 z m 279 135 l 218 135 l 218 0 l 304 0 b 432 122 361 0 432 65 l 432 611 b 304 733 432 667 360 733 l 218 733 l 218 600 l 279 600 z m 51 963 l 51 808 l 215 808 l 215 963 z m 253 963 l 253 808 l 417 808 l 417 963 z "},"ő":{"ha":467,"x_min":0,"x_max":0,"o":"m 163 733 b 35 611 106 733 35 669 l 35 122 b 163 0 35 61 104 0 l 188 0 l 188 733 z m 279 135 l 218 135 l 218 0 l 304 0 b 432 122 361 0 432 65 l 432 611 b 304 733 432 667 360 733 l 218 733 l 218 600 l 279 600 z m 124 963 l 54 808 l 176 808 l 288 963 z m 333 963 l 264 808 l 386 808 l 497 963 z "},"ō":{"ha":467,"x_min":0,"x_max":0,"o":"m 163 733 b 35 611 106 733 35 669 l 35 122 b 163 0 35 61 104 0 l 188 0 l 188 733 z m 279 135 l 218 135 l 218 0 l 304 0 b 432 122 361 0 432 65 l 432 611 b 304 733 432 667 360 733 l 218 733 l 218 600 l 279 600 z m 61 899 l 61 808 l 406 808 l 406 899 z "},"õ":{"ha":467,"x_min":0,"x_max":0,"o":"m 163 733 b 35 611 106 733 35 669 l 35 122 b 163 0 35 61 104 0 l 188 0 l 188 733 z m 279 135 l 218 135 l 218 0 l 304 0 b 432 122 361 0 432 65 l 432 611 b 304 733 432 667 360 733 l 218 733 l 218 600 l 279 600 z m 43 857 l 126 806 l 169 878 l 281 814 b 363 833 304 801 344 806 l 424 942 l 342 992 l 299 919 l 199 976 b 94 947 164 997 115 982 z "},"ŕ":{"ha":438,"x_min":0,"x_max":0,"o":"m 279 532 l 431 532 l 431 611 b 304 733 431 668 360 733 l 218 733 l 218 600 l 279 600 z m 35 0 l 188 0 l 188 733 l 35 733 z m 193 963 l 124 808 l 260 808 l 371 963 z "},"ř":{"ha":438,"x_min":0,"x_max":0,"o":"m 279 532 l 431 532 l 431 611 b 304 733 431 668 360 733 l 218 733 l 218 600 l 279 600 z m 35 0 l 188 0 l 188 733 l 35 733 z m 350 808 l 433 963 l 297 963 l 219 867 l 142 963 l 6 963 l 89 808 z "},"ŗ":{"ha":438,"x_min":0,"x_max":0,"o":"m 279 532 l 431 532 l 431 611 b 304 733 431 668 360 733 l 218 733 l 218 600 l 279 600 z m 35 0 l 188 0 l 188 733 l 35 733 z m 188 -58 l 35 -58 l 35 -292 l 99 -292 l 188 -206 z "},"ħ":{"ha":474,"x_min":0,"x_max":0,"o":"m 286 0 l 439 0 l 439 611 b 311 733 439 667 367 733 l 225 733 l 225 600 l 286 600 z m 42 0 l 194 0 l 194 813 l 264 813 l 264 931 l 194 931 l 194 1028 l 42 1028 l 42 931 l -28 931 l -28 813 l 42 813 z "},"ĥ":{"ha":474,"x_min":0,"x_max":0,"o":"m 286 0 l 439 0 l 439 611 b 311 733 439 667 367 733 l 225 733 l 225 600 l 286 600 z m 42 1028 l 42 0 l 194 0 l 194 1028 z m 107 1257 l 24 1103 l 160 1103 l 238 1199 l 315 1103 l 451 1103 l 368 1257 z "},"ı":{"ha":236,"x_min":0,"x_max":0,"o":"m 42 733 l 42 0 l 194 0 l 194 733 z "},"í":{"ha":236,"x_min":0,"x_max":0,"o":"m 42 733 l 42 0 l 194 0 l 194 733 z m 106 963 l 36 808 l 172 808 l 283 963 z "},"î":{"ha":236,"x_min":0,"x_max":0,"o":"m 42 733 l 42 0 l 194 0 l 194 733 z m -12 963 l -96 808 l 40 808 l 118 904 l 196 808 l 332 808 l 249 963 z "},"ï":{"ha":236,"x_min":0,"x_max":0,"o":"m 42 733 l 42 0 l 194 0 l 194 733 z m -64 963 l -64 808 l 100 808 l 100 963 z m 138 963 l 138 808 l 301 808 l 301 963 z "},"ì":{"ha":236,"x_min":0,"x_max":0,"o":"m 42 733 l 42 0 l 194 0 l 194 733 z m -47 963 l 64 808 l 200 808 l 131 963 z "},"ī":{"ha":236,"x_min":0,"x_max":0,"o":"m 42 733 l 42 0 l 194 0 l 194 733 z m -54 899 l -54 808 l 290 808 l 290 899 z "},"į":{"ha":236,"x_min":0,"x_max":0,"o":"m 42 733 l 42 3 b 8 -61 18 -19 8 -40 l 8 -101 b 194 -151 8 -204 131 -189 l 194 -82 l 132 -82 l 132 0 l 194 0 l 194 733 z m 194 960 l 42 960 l 42 813 l 194 813 z "},"ĩ":{"ha":236,"x_min":0,"x_max":0,"o":"m 42 733 l 42 0 l 194 0 l 194 733 z m -72 857 l 11 806 l 54 878 l 165 814 b 247 833 189 801 229 806 l 308 942 l 226 992 l 183 919 l 83 976 b -21 947 49 997 0 982 z "},"ĳ":{"ha":476,"x_min":0,"x_max":0,"o":"m 194 960 l 42 960 l 42 813 l 194 813 z m 42 733 l 42 0 l 194 0 l 194 733 z m 282 733 l 282 -158 l 222 -158 l 222 -292 l 307 -292 b 393 -251 336 -292 365 -278 b 435 -169 421 -225 435 -199 l 435 733 z m 435 960 l 282 960 l 282 813 l 435 813 z "},"ĵ":{"ha":240,"x_min":0,"x_max":0,"o":"m 46 733 l 46 -158 l -14 -158 l -14 -292 l 71 -292 b 157 -251 100 -292 129 -278 b 199 -169 185 -225 199 -199 l 199 733 z m -10 963 l -93 808 l 43 808 l 121 904 l 199 808 l 335 808 l 251 963 z "},"ĺ":{"ha":236,"x_min":0,"x_max":0,"o":"m 42 1028 l 42 0 l 194 0 l 194 1028 z m 106 1257 l 36 1103 l 172 1103 l 283 1257 z "},"ľ":{"ha":425,"x_min":0,"x_max":0,"o":"m 42 1028 l 42 0 l 194 0 l 194 1028 z m 383 1028 l 231 1028 l 231 794 l 294 794 l 383 881 z "},"ļ":{"ha":236,"x_min":0,"x_max":0,"o":"m 42 1028 l 42 0 l 194 0 l 194 1028 z m 194 -58 l 42 -58 l 42 -292 l 106 -292 l 194 -206 z "},"ŀ":{"ha":425,"x_min":0,"x_max":0,"o":"m 42 1028 l 42 0 l 194 0 l 194 1028 z m 383 592 l 231 592 l 231 444 l 383 444 z "},"ł":{"ha":236,"x_min":0,"x_max":0,"o":"m 42 1028 l 42 469 l -60 390 l -14 329 l 42 372 l 42 0 l 194 0 l 194 493 l 296 572 l 250 633 l 194 589 l 194 1028 z "},"ø":{"ha":467,"x_min":0,"x_max":0,"o":"m 253 324 l 253 479 l 218 421 l 218 265 z m 163 733 b 35 611 106 733 35 669 l 35 122 b 163 0 35 61 104 0 l 188 0 l 188 733 z m 279 135 l 218 135 l 218 0 l 304 0 b 432 122 361 0 432 65 l 432 611 b 304 733 432 667 360 733 l 218 733 l 218 600 l 279 600 z "},"ǿ":{"ha":467,"x_min":0,"x_max":0,"o":"m 253 324 l 253 479 l 218 421 l 218 265 z m 163 733 b 35 611 106 733 35 669 l 35 122 b 163 0 35 61 104 0 l 188 0 l 188 733 z m 279 135 l 218 135 l 218 0 l 304 0 b 432 122 361 0 432 65 l 432 611 b 304 733 432 667 360 733 l 218 733 l 218 600 l 279 600 z m 221 963 l 151 808 l 288 808 l 399 963 z "},"œ":{"ha":710,"x_min":0,"x_max":0,"o":"m 249 600 l 249 733 l 163 733 b 35 611 106 733 35 669 l 35 122 b 163 0 35 61 104 0 l 249 0 l 249 135 l 188 135 l 188 600 z m 282 0 b 354 57 299 0 338 19 b 425 0 371 19 410 0 l 431 0 l 431 733 l 426 733 b 354 676 410 733 371 714 b 283 733 338 714 299 733 l 278 733 l 278 0 z m 461 404 l 461 269 l 675 269 l 674 611 b 547 733 674 668 603 733 l 461 733 l 461 600 l 522 600 l 522 404 z m 461 135 l 461 0 l 547 0 b 674 122 604 0 674 64 l 674 201 l 522 201 l 522 135 z "},"ś":{"ha":465,"x_min":0,"x_max":0,"o":"m 279 532 l 431 532 l 431 611 b 304 733 431 668 360 733 l 218 733 l 218 600 l 279 600 z m 163 733 b 35 611 106 733 35 669 l 35 439 b 163 317 35 382 106 317 l 188 314 l 188 733 z m 279 135 l 218 135 l 218 0 l 304 0 b 431 122 361 0 431 64 l 431 318 b 304 442 431 375 360 440 l 218 446 l 218 311 l 279 307 z m 188 201 l 35 201 l 35 122 b 163 0 35 61 104 0 l 188 0 z m 221 963 l 151 808 l 288 808 l 399 963 z "},"š":{"ha":465,"x_min":0,"x_max":0,"o":"m 279 532 l 431 532 l 431 611 b 304 733 431 668 360 733 l 218 733 l 218 600 l 279 600 z m 163 733 b 35 611 106 733 35 669 l 35 439 b 163 317 35 382 106 317 l 188 314 l 188 733 z m 279 135 l 218 135 l 218 0 l 304 0 b 431 122 361 0 431 64 l 431 318 b 304 442 431 375 360 440 l 218 446 l 218 311 l 279 307 z m 188 201 l 35 201 l 35 122 b 163 0 35 61 104 0 l 188 0 z m 364 808 l 447 963 l 311 963 l 233 867 l 156 963 l 19 963 l 103 808 z "},"ŝ":{"ha":465,"x_min":0,"x_max":0,"o":"m 279 532 l 431 532 l 431 611 b 304 733 431 668 360 733 l 218 733 l 218 600 l 279 600 z m 163 733 b 35 611 106 733 35 669 l 35 439 b 163 317 35 382 106 317 l 188 314 l 188 733 z m 279 135 l 218 135 l 218 0 l 304 0 b 431 122 361 0 431 64 l 431 318 b 304 442 431 375 360 440 l 218 446 l 218 311 l 279 307 z m 188 201 l 35 201 l 35 122 b 163 0 35 61 104 0 l 188 0 z m 103 963 l 19 808 l 156 808 l 233 904 l 311 808 l 447 808 l 364 963 z "},"ș":{"ha":465,"x_min":0,"x_max":0,"o":"m 279 532 l 431 532 l 431 611 b 304 733 431 668 360 733 l 218 733 l 218 600 l 279 600 z m 163 733 b 35 611 106 733 35 669 l 35 439 b 163 317 35 382 106 317 l 188 314 l 188 733 z m 279 135 l 218 135 l 218 0 l 304 0 b 431 122 361 0 431 64 l 431 318 b 304 442 431 375 360 440 l 218 446 l 218 311 l 279 307 z m 188 201 l 35 201 l 35 122 b 163 0 35 61 104 0 l 188 0 z m 310 -58 l 157 -58 l 157 -292 l 221 -292 l 310 -206 z "},"ş":{"ha":465,"x_min":0,"x_max":0,"o":"m 250 -100 l 183 -100 l 183 -169 b 360 -119 247 -207 360 -222 l 360 -37 b 343 8 360 -21 353 -4 b 431 122 389 28 431 78 l 431 318 b 304 442 431 375 360 440 l 218 446 l 218 311 l 279 307 l 279 135 l 218 135 l 218 -18 l 250 -18 z m 163 733 b 35 611 106 733 35 669 l 35 439 b 163 317 35 382 106 317 l 188 314 l 188 733 z m 279 532 l 431 532 l 431 611 b 304 733 431 668 360 733 l 218 733 l 218 600 l 279 600 z m 188 201 l 35 201 l 35 122 b 163 0 35 61 104 0 l 188 0 z "},"ú":{"ha":467,"x_min":0,"x_max":0,"o":"m 188 733 l 35 733 l 35 122 b 163 0 35 61 104 0 l 249 0 l 249 135 l 188 135 z m 432 0 l 432 733 l 279 733 l 279 0 z m 221 963 l 151 808 l 288 808 l 399 963 z "},"ŭ":{"ha":467,"x_min":0,"x_max":0,"o":"m 188 733 l 35 733 l 35 122 b 163 0 35 61 104 0 l 249 0 l 249 135 l 188 135 z m 432 0 l 432 733 l 279 733 l 279 0 z m 167 918 l 167 949 l 61 949 l 61 899 b 89 838 61 878 71 858 b 149 808 107 818 128 808 l 314 808 b 375 838 335 808 356 818 b 406 899 396 857 406 878 l 406 949 l 299 949 l 299 918 z "},"û":{"ha":467,"x_min":0,"x_max":0,"o":"m 188 733 l 35 733 l 35 122 b 163 0 35 61 104 0 l 249 0 l 249 135 l 188 135 z m 432 0 l 432 733 l 279 733 l 279 0 z m 103 963 l 19 808 l 156 808 l 233 904 l 311 808 l 447 808 l 364 963 z "},"ü":{"ha":467,"x_min":0,"x_max":0,"o":"m 188 733 l 35 733 l 35 122 b 163 0 35 61 104 0 l 249 0 l 249 135 l 188 135 z m 432 0 l 432 733 l 279 733 l 279 0 z m 51 963 l 51 808 l 215 808 l 215 963 z m 253 963 l 253 808 l 417 808 l 417 963 z "},"ű":{"ha":467,"x_min":0,"x_max":0,"o":"m 188 733 l 35 733 l 35 122 b 163 0 35 61 104 0 l 249 0 l 249 135 l 188 135 z m 432 0 l 432 733 l 279 733 l 279 0 z m 124 963 l 54 808 l 176 808 l 288 963 z m 333 963 l 264 808 l 386 808 l 497 963 z "},"ù":{"ha":467,"x_min":0,"x_max":0,"o":"m 188 733 l 35 733 l 35 122 b 163 0 35 61 104 0 l 249 0 l 249 135 l 188 135 z m 432 0 l 432 733 l 279 733 l 279 0 z m 68 963 l 179 808 l 315 808 l 246 963 z "},"ū":{"ha":467,"x_min":0,"x_max":0,"o":"m 188 733 l 35 733 l 35 122 b 163 0 35 61 104 0 l 249 0 l 249 135 l 188 135 z m 432 0 l 432 733 l 279 733 l 279 0 z m 61 899 l 61 808 l 406 808 l 406 899 z "},"ů":{"ha":467,"x_min":0,"x_max":0,"o":"m 188 733 l 35 733 l 35 122 b 163 0 35 61 104 0 l 249 0 l 249 135 l 188 135 z m 432 0 l 432 733 l 279 733 l 279 0 z m 88 889 b 117 828 88 868 97 847 b 179 799 138 808 158 799 l 218 799 l 218 908 l 185 908 l 185 975 l 218 975 l 218 1086 l 179 1086 b 117 1056 158 1086 138 1076 b 88 994 97 1036 88 1015 z m 285 975 l 285 908 l 254 908 l 254 799 l 293 799 b 381 889 336 799 381 846 l 381 994 b 293 1086 381 1038 336 1086 l 254 1086 l 254 975 z "},"ũ":{"ha":467,"x_min":0,"x_max":0,"o":"m 188 733 l 35 733 l 35 122 b 163 0 35 61 104 0 l 249 0 l 249 135 l 188 135 z m 432 0 l 432 733 l 279 733 l 279 0 z m 43 857 l 126 806 l 169 878 l 281 814 b 363 833 304 801 344 806 l 424 942 l 342 992 l 299 919 l 199 976 b 94 947 164 997 115 982 z "},"Ī":{"ha":275,"x_min":0,"x_max":0,"o":"m 49 1026 l 49 0 l 226 0 l 226 1026 z m -35 1193 l -35 1103 l 310 1103 l 310 1193 z "},"ĭ":{"ha":236,"x_min":0,"x_max":0,"o":"m 194 960 l 42 960 l 42 813 l 194 813 z m 42 733 l 42 0 l 194 0 l 194 733 z m 51 918 l 51 949 l -54 949 l -54 899 b -26 838 -54 878 -44 858 b 33 808 -8 818 13 808 l 199 808 b 260 838 219 808 240 818 b 290 899 281 857 290 878 l 290 949 l 183 949 l 183 918 z "},"ŧ":{"ha":319,"x_min":0,"x_max":0,"o":"m 21 600 l 85 600 l 85 501 l 21 501 l 21 383 l 85 383 l 85 122 b 213 0 85 61 154 0 l 299 0 l 299 135 l 238 135 l 238 383 l 299 383 l 299 501 l 238 501 l 238 600 l 299 600 l 299 733 l 238 733 l 238 944 l 85 944 l 85 733 l 21 733 z "},"ť":{"ha":465,"x_min":0,"x_max":0,"o":"m 21 600 l 85 600 l 85 122 b 213 0 85 61 154 0 l 299 0 l 299 135 l 238 135 l 238 600 l 299 600 l 299 733 l 238 733 l 238 944 l 85 944 l 85 733 l 21 733 z m 444 1028 l 292 1028 l 292 794 l 356 794 l 444 881 z "},"ţ":{"ha":319,"x_min":0,"x_max":0,"o":"m 21 600 l 85 600 l 85 122 b 213 0 85 61 154 0 l 299 0 l 299 135 l 238 135 l 238 600 l 299 600 l 299 733 l 238 733 l 238 944 l 85 944 l 85 733 l 21 733 z m 294 -58 l 142 -58 l 142 -292 l 206 -292 l 294 -206 z "},"ų":{"ha":467,"x_min":0,"x_max":0,"o":"m 188 733 l 35 733 l 35 122 b 163 0 35 61 104 0 l 249 0 l 249 135 l 188 135 z m 279 733 l 279 3 b 246 -61 256 -19 246 -40 l 246 -101 b 432 -151 246 -204 368 -189 l 432 -82 l 369 -82 l 369 0 l 432 0 l 432 733 z "},"Ŋ":{"ha":649,"x_min":0,"x_max":0,"o":"m 49 1026 l 436 0 l 436 -79 l 315 -79 l 314 -222 l 456 -222 b 600 -83 521 -222 600 -150 l 600 0 l 213 1026 z m 600 101 l 600 1026 l 422 1026 l 422 572 z m 49 925 l 49 0 l 226 0 l 226 454 z "},"ŋ":{"ha":467,"x_min":0,"x_max":0,"o":"m 279 -65 l 194 -65 l 194 -208 l 288 -208 b 432 -69 353 -208 432 -136 l 432 611 b 304 733 432 667 360 733 l 218 733 l 218 600 l 279 600 z m 35 733 l 35 0 l 188 0 l 188 733 z "},"Ѐ":{"ha":521,"x_min":0,"x_max":0,"o":"m 263 1026 l 263 871 l 492 871 l 492 1026 z m 49 1026 l 49 0 l 226 0 l 226 1026 z m 492 0 l 492 157 l 263 157 l 263 0 z m 454 465 l 454 622 l 263 622 l 263 465 z m 94 1257 l 206 1103 l 342 1103 l 272 1257 z "},"Ѝ":{"ha":649,"x_min":0,"x_max":0,"o":"m 49 0 l 226 0 l 226 1026 l 49 1026 z m 388 464 l 388 879 l 263 564 l 263 149 z m 600 0 l 600 1026 l 422 1026 l 422 0 z m 158 1257 l 269 1103 l 406 1103 l 336 1257 z "},"ѐ":{"ha":467,"x_min":0,"x_max":0,"o":"m 218 135 l 218 0 l 304 0 b 431 122 361 0 431 64 l 431 201 l 279 201 l 279 135 z m 218 404 l 218 269 l 432 269 l 431 611 b 304 733 431 668 360 733 l 218 733 l 218 600 l 279 600 l 279 404 z m 163 733 b 35 611 106 733 35 669 l 35 122 b 163 0 35 61 104 0 l 188 0 l 188 733 z m 68 963 l 179 808 l 315 808 l 246 963 z "},"ѝ":{"ha":467,"x_min":0,"x_max":0,"o":"m 188 733 l 35 733 l 35 122 b 163 0 35 61 104 0 l 249 0 l 249 135 l 188 135 z m 432 0 l 432 733 l 279 733 l 279 0 z m 54 963 l 165 808 l 301 808 l 232 963 z "},"Ӑ":{"ha":633,"x_min":0,"x_max":0,"o":"m 311 1026 l 447 0 l 633 0 l 465 1026 z m 364 356 l 233 356 l 299 847 l 275 1026 l 169 1026 l 0 0 l 186 0 l 213 199 l 385 199 z m 279 1185 l 279 1243 l 144 1243 l 144 1193 b 172 1132 144 1172 154 1153 b 232 1103 190 1113 211 1103 l 397 1103 b 458 1132 418 1103 439 1113 b 489 1193 479 1151 489 1172 l 489 1243 l 353 1243 l 353 1185 z "},"ӑ":{"ha":465,"x_min":0,"x_max":0,"o":"m 279 0 l 431 0 l 431 611 b 304 733 431 668 360 733 l 279 733 z m 249 331 l 249 464 l 163 464 b 35 342 106 464 35 400 l 35 122 b 163 0 35 61 104 0 l 249 0 l 249 135 l 188 135 l 188 331 z m 249 600 l 249 733 l 163 733 b 35 611 106 733 35 669 l 35 532 l 188 532 l 188 600 z m 196 890 l 196 949 l 61 949 l 61 899 b 89 838 61 878 71 858 b 149 808 107 818 128 808 l 314 808 b 375 838 335 808 356 818 b 406 899 396 857 406 878 l 406 949 l 269 949 l 269 890 z "},"Ӓ":{"ha":633,"x_min":0,"x_max":0,"o":"m 311 1026 l 447 0 l 633 0 l 465 1026 z m 364 356 l 233 356 l 299 847 l 275 1026 l 169 1026 l 0 0 l 186 0 l 213 199 l 385 199 z m 133 1257 l 133 1103 l 297 1103 l 297 1257 z m 335 1257 l 335 1103 l 499 1103 l 499 1257 z "},"ӓ":{"ha":465,"x_min":0,"x_max":0,"o":"m 279 0 l 431 0 l 431 611 b 304 733 431 668 360 733 l 279 733 z m 249 331 l 249 464 l 163 464 b 35 342 106 464 35 400 l 35 122 b 163 0 35 61 104 0 l 249 0 l 249 135 l 188 135 l 188 331 z m 249 600 l 249 733 l 163 733 b 35 611 106 733 35 669 l 35 532 l 188 532 l 188 600 z m 50 963 l 50 808 l 214 808 l 214 963 z m 251 963 l 251 808 l 415 808 l 415 963 z "},"Ӕ":{"ha":751,"x_min":0,"x_max":0,"o":"m 299 356 l 233 356 l 299 847 l 299 1026 l 169 1026 l 0 0 l 186 0 l 213 199 l 299 199 z m 549 1026 l 549 871 l 722 871 l 722 1026 z m 335 1026 l 335 0 l 513 0 l 513 1026 z m 722 0 l 722 157 l 549 157 l 549 0 z m 685 465 l 685 622 l 549 622 l 549 465 z "},"ӕ":{"ha":710,"x_min":0,"x_max":0,"o":"m 426 733 b 354 676 410 733 371 714 b 283 733 338 714 299 733 l 278 733 l 278 122 l 278 117 l 278 0 l 431 0 l 431 733 z m 461 404 l 461 269 l 675 269 l 674 611 b 547 733 674 668 603 733 l 461 733 l 461 600 l 522 600 l 522 404 z m 249 331 l 249 464 l 163 464 b 35 342 106 464 35 400 l 35 122 b 163 0 35 61 104 0 l 249 0 l 249 135 l 188 135 l 188 331 z m 249 600 l 249 733 l 163 733 b 35 611 106 733 35 669 l 35 532 l 188 532 l 188 600 z m 461 135 l 461 0 l 547 0 b 674 122 604 0 674 64 l 674 201 l 522 201 l 522 135 z "},"Ӗ":{"ha":521,"x_min":0,"x_max":0,"o":"m 263 1026 l 263 871 l 492 871 l 492 1026 z m 49 1026 l 49 0 l 226 0 l 226 1026 z m 492 0 l 492 157 l 263 157 l 263 0 z m 454 465 l 454 622 l 263 622 l 263 465 z m 222 1185 l 222 1243 l 88 1243 l 88 1193 b 115 1132 88 1172 97 1153 b 175 1103 133 1113 154 1103 l 340 1103 b 401 1132 361 1103 382 1113 b 432 1193 422 1151 432 1172 l 432 1243 l 296 1243 l 296 1185 z "},"ӗ":{"ha":467,"x_min":0,"x_max":0,"o":"m 218 135 l 218 0 l 304 0 b 431 122 361 0 431 64 l 431 201 l 279 201 l 279 135 z m 218 404 l 218 269 l 432 269 l 431 611 b 304 733 431 668 360 733 l 218 733 l 218 600 l 279 600 l 279 404 z m 163 733 b 35 611 106 733 35 669 l 35 122 b 163 0 35 61 104 0 l 188 0 l 188 733 z m 196 890 l 196 949 l 61 949 l 61 899 b 89 838 61 878 71 858 b 149 808 107 818 128 808 l 314 808 b 375 838 335 808 356 818 b 406 899 396 857 406 878 l 406 949 l 269 949 l 269 890 z "},"Ӝ":{"ha":993,"x_min":0,"x_max":0,"o":"m 826 0 l 1007 0 l 775 546 l 969 1026 l 796 1026 l 621 568 l 621 458 z m 407 0 l 586 0 l 586 1026 l 407 1026 z m 372 568 l 197 1026 l 24 1026 l 218 546 l -14 0 l 167 0 l 372 458 z m 314 1257 l 314 1103 l 478 1103 l 478 1257 z m 515 1257 l 515 1103 l 679 1103 l 679 1257 z "},"ӝ":{"ha":764,"x_min":0,"x_max":0,"o":"m 306 0 l 458 0 l 458 733 l 306 733 z m 275 464 l 181 733 l 38 733 l 161 390 l 0 0 l 154 0 l 275 300 z m 610 0 l 764 0 l 603 390 l 726 733 l 583 733 l 489 464 l 489 300 z m 199 963 l 199 808 l 363 808 l 363 963 z m 400 963 l 400 808 l 564 808 l 564 963 z "},"Ӟ":{"ha":625,"x_min":0,"x_max":0,"o":"m 232 436 l 376 436 l 376 593 l 232 593 z m 213 157 l 213 299 l 35 299 l 35 143 b 183 0 35 75 117 0 l 376 0 l 376 157 z m 442 0 b 590 143 507 0 590 76 l 590 403 b 486 518 590 465 556 504 l 486 525 b 569 628 542 540 569 574 l 569 901 b 433 1026 569 961 492 1026 l 411 1026 l 411 0 z m 190 1026 b 54 901 132 1026 54 963 l 54 740 l 213 740 l 213 871 l 376 871 l 376 1026 z m 129 1257 l 129 1103 l 293 1103 l 293 1257 z m 331 1257 l 331 1103 l 494 1103 l 494 1257 z "},"ӟ":{"ha":453,"x_min":0,"x_max":0,"o":"m 242 600 l 242 733 l 156 733 b 28 611 99 733 28 669 l 28 532 l 181 532 l 181 600 z m 181 214 l 28 214 l 28 122 b 156 0 28 61 97 0 l 242 0 l 242 135 l 181 135 z m 272 0 l 297 0 b 425 122 354 0 425 64 l 425 288 b 350 369 425 332 400 360 l 350 376 b 410 457 390 383 410 411 l 410 611 b 282 733 410 669 339 733 l 272 733 l 272 435 l 181 435 l 181 300 l 272 300 z m 44 963 l 44 808 l 208 808 l 208 963 z m 246 963 l 246 808 l 410 808 l 410 963 z "},"Ӣ":{"ha":649,"x_min":0,"x_max":0,"o":"m 49 0 l 226 0 l 226 1026 l 49 1026 z m 388 464 l 388 879 l 263 564 l 263 149 z m 600 0 l 600 1026 l 422 1026 l 422 0 z m 151 1193 l 151 1103 l 496 1103 l 496 1193 z "},"ӣ":{"ha":467,"x_min":0,"x_max":0,"o":"m 188 733 l 35 733 l 35 122 b 163 0 35 61 104 0 l 249 0 l 249 135 l 188 135 z m 432 0 l 432 733 l 279 733 l 279 0 z m 61 899 l 61 808 l 406 808 l 406 899 z "},"Ӥ":{"ha":649,"x_min":0,"x_max":0,"o":"m 49 0 l 226 0 l 226 1026 l 49 1026 z m 388 464 l 388 879 l 263 564 l 263 149 z m 600 0 l 600 1026 l 422 1026 l 422 0 z m 142 1257 l 142 1103 l 306 1103 l 306 1257 z m 343 1257 l 343 1103 l 507 1103 l 507 1257 z "},"ӥ":{"ha":467,"x_min":0,"x_max":0,"o":"m 188 733 l 35 733 l 35 122 b 163 0 35 61 104 0 l 249 0 l 249 135 l 188 135 z m 432 0 l 432 733 l 279 733 l 279 0 z m 51 963 l 51 808 l 215 808 l 215 963 z m 253 963 l 253 808 l 417 808 l 417 963 z "},"Ӧ":{"ha":653,"x_min":0,"x_max":0,"o":"m 425 157 l 263 157 l 263 0 l 456 0 b 604 143 521 0 604 76 l 604 883 b 456 1026 604 950 521 1026 l 263 1026 l 263 871 l 425 871 z m 197 1026 b 49 883 131 1026 49 951 l 49 143 b 197 0 49 75 131 0 l 226 0 l 226 1026 z m 143 1257 l 143 1103 l 307 1103 l 307 1257 z m 344 1257 l 344 1103 l 508 1103 l 508 1257 z "},"ӧ":{"ha":467,"x_min":0,"x_max":0,"o":"m 163 733 b 35 611 106 733 35 669 l 35 122 b 163 0 35 61 104 0 l 188 0 l 188 733 z m 279 135 l 218 135 l 218 0 l 304 0 b 432 122 361 0 432 65 l 432 611 b 304 733 432 667 360 733 l 218 733 l 218 600 l 279 600 z m 51 963 l 51 808 l 215 808 l 215 963 z m 253 963 l 253 808 l 417 808 l 417 963 z "},"Ӭ":{"ha":646,"x_min":0,"x_max":0,"o":"m 239 593 l 239 436 l 383 436 l 383 593 z m 219 157 l 219 299 l 42 299 l 42 143 b 190 0 42 75 124 0 l 383 0 l 383 157 z m 449 0 b 597 143 514 0 597 76 l 597 883 b 449 1026 597 950 514 1026 l 418 1026 l 418 0 z m 190 1026 b 42 883 124 1026 42 951 l 42 726 l 219 726 l 219 871 l 383 871 l 383 1026 z m 140 1257 l 140 1103 l 304 1103 l 304 1257 z m 342 1257 l 342 1103 l 506 1103 l 506 1257 z "},"ӭ":{"ha":467,"x_min":0,"x_max":0,"o":"m 249 600 l 249 733 l 163 733 b 35 611 106 733 35 669 l 35 532 l 188 532 l 188 600 z m 188 214 l 35 214 l 35 122 b 163 0 35 61 104 0 l 249 0 l 249 135 l 188 135 z m 279 0 l 304 0 b 432 122 361 0 432 64 l 432 367 l 432 611 b 303 733 432 669 360 733 l 279 733 l 279 435 l 188 435 l 188 300 l 279 300 z m 51 963 l 51 808 l 215 808 l 215 963 z m 253 963 l 253 808 l 417 808 l 417 963 z "},"Ӯ":{"ha":569,"x_min":0,"x_max":0,"o":"m 81 157 l 81 0 l 226 0 b 378 146 296 0 363 83 l 576 1026 l 386 1026 l 217 157 z m 183 1026 l -7 1026 l 193 215 l 269 603 z m 113 1193 l 113 1103 l 457 1103 l 457 1193 z "},"ӯ":{"ha":471,"x_min":0,"x_max":0,"o":"m 188 733 l 35 733 l 35 122 b 163 0 35 61 104 0 l 249 0 l 249 135 l 188 135 z m 304 -292 b 432 -169 360 -292 432 -225 l 432 733 l 279 733 l 279 -292 z m 188 -90 l 35 -90 l 35 -169 b 163 -292 35 -228 106 -292 l 249 -292 l 249 -158 l 188 -158 z m 64 899 l 64 808 l 408 808 l 408 899 z "},"Ӱ":{"ha":569,"x_min":0,"x_max":0,"o":"m 81 157 l 81 0 l 226 0 b 378 146 296 0 363 83 l 576 1026 l 386 1026 l 217 157 z m 183 1026 l -7 1026 l 193 215 l 269 603 z m 101 1257 l 101 1103 l 265 1103 l 265 1257 z m 303 1257 l 303 1103 l 467 1103 l 467 1257 z "},"ӱ":{"ha":471,"x_min":0,"x_max":0,"o":"m 188 733 l 35 733 l 35 122 b 163 0 35 61 104 0 l 249 0 l 249 135 l 188 135 z m 304 -292 b 432 -169 360 -292 432 -225 l 432 733 l 279 733 l 279 -292 z m 188 -90 l 35 -90 l 35 -169 b 163 -292 35 -228 106 -292 l 249 -292 l 249 -158 l 188 -158 z m 53 963 l 53 808 l 217 808 l 217 963 z m 254 963 l 254 808 l 418 808 l 418 963 z "},"Ӳ":{"ha":569,"x_min":0,"x_max":0,"o":"m 81 157 l 81 0 l 226 0 b 378 146 296 0 363 83 l 576 1026 l 386 1026 l 217 157 z m 183 1026 l -7 1026 l 193 215 l 269 603 z m 193 1257 l 124 1103 l 246 1103 l 357 1257 z m 403 1257 l 333 1103 l 456 1103 l 567 1257 z "},"ӳ":{"ha":471,"x_min":0,"x_max":0,"o":"m 188 733 l 35 733 l 35 122 b 163 0 35 61 104 0 l 249 0 l 249 135 l 188 135 z m 304 -292 b 432 -169 360 -292 432 -225 l 432 733 l 279 733 l 279 -292 z m 188 -90 l 35 -90 l 35 -169 b 163 -292 35 -228 106 -292 l 249 -292 l 249 -158 l 188 -158 z m 138 963 l 68 808 l 190 808 l 301 963 z m 347 963 l 278 808 l 400 808 l 511 963 z "},"Ӵ":{"ha":639,"x_min":0,"x_max":0,"o":"m 213 561 l 213 1026 l 35 1026 l 35 547 b 183 404 35 479 117 404 l 376 404 l 376 561 z m 590 0 l 590 1026 l 411 1026 l 411 0 z m 136 1257 l 136 1103 l 300 1103 l 300 1257 z m 338 1257 l 338 1103 l 501 1103 l 501 1257 z "},"ӵ":{"ha":460,"x_min":0,"x_max":0,"o":"m 181 733 l 28 733 l 28 422 b 156 300 28 361 97 300 l 242 300 l 242 435 l 181 435 z m 425 0 l 425 733 l 272 733 l 272 0 z m 47 963 l 47 808 l 211 808 l 211 963 z m 249 963 l 249 808 l 413 808 l 413 963 z "},"Ӹ":{"ha":872,"x_min":0,"x_max":0,"o":"m 646 1026 l 646 0 l 824 0 l 824 1026 z m 410 465 l 410 157 l 263 157 l 263 0 l 442 0 b 590 143 507 0 590 76 l 590 479 b 442 622 590 546 507 622 l 263 622 l 263 465 z m 49 1026 l 49 0 l 226 0 l 226 1026 z m 253 1257 l 253 1103 l 417 1103 l 417 1257 z m 454 1257 l 454 1103 l 618 1103 l 618 1257 z "},"ӹ":{"ha":664,"x_min":0,"x_max":0,"o":"m 35 733 l 35 0 l 188 0 l 188 733 z m 279 135 l 218 135 l 218 0 l 304 0 b 431 122 361 0 431 64 l 431 342 b 304 464 431 399 360 464 l 218 464 l 218 331 l 279 331 z m 476 733 l 476 0 l 629 0 l 629 733 z m 149 963 l 149 808 l 313 808 l 313 963 z m 350 963 l 350 808 l 514 808 l 514 963 z "},"Ӂ":{"ha":993,"x_min":0,"x_max":0,"o":"m 826 0 l 1007 0 l 775 546 l 969 1026 l 796 1026 l 621 568 l 621 458 z m 407 0 l 586 0 l 586 1026 l 407 1026 z m 372 568 l 197 1026 l 24 1026 l 218 546 l -14 0 l 167 0 l 372 458 z m 429 1213 l 429 1243 l 324 1243 l 324 1193 b 351 1132 324 1172 333 1153 b 411 1103 369 1113 390 1103 l 576 1103 b 638 1132 597 1103 618 1113 b 668 1193 658 1151 668 1172 l 668 1243 l 561 1243 l 561 1213 z "},"ӂ":{"ha":764,"x_min":0,"x_max":0,"o":"m 306 0 l 458 0 l 458 733 l 306 733 z m 275 464 l 181 733 l 38 733 l 161 390 l 0 0 l 154 0 l 275 300 z m 610 0 l 764 0 l 603 390 l 726 733 l 583 733 l 489 464 l 489 300 z m 315 918 l 315 949 l 210 949 l 210 899 b 238 838 210 878 219 858 b 297 808 256 818 276 808 l 463 808 b 524 838 483 808 504 818 b 554 899 544 857 554 878 l 554 949 l 447 949 l 447 918 z "},"\"":{"ha":414,"x_min":0,"x_max":0,"o":"m 372 1026 l 225 1026 l 246 782 l 353 782 z m 189 1026 l 42 1026 l 61 782 l 169 782 z "}}}
